<svg width="288" height="128" viewBox="0 0 288 128" fill="none" xmlns="http://www.w3.org/2000/svg">
<path d="M125.589 51.359C126.144 50.249 126.421 49.176 126.421 48.14C126.421 47.104 126.366 46.3085 126.255 45.7535C126.144 45.1615 125.959 44.6435 125.7 44.1995C125.145 43.2375 124.312 42.7565 123.202 42.7565C121.833 42.7565 120.594 43.256 119.484 44.255C118.3 45.291 117.708 46.623 117.708 48.251C117.708 49.287 118.059 50.212 118.762 51.026C119.502 51.803 120.427 52.5615 121.537 53.3015C122.647 54.0415 123.831 54.7815 125.089 55.5215C126.347 56.2615 127.531 57.0755 128.641 57.9635C131.194 59.9985 132.471 62.385 132.471 65.123C132.471 66.973 131.971 68.6935 130.972 70.2845C130.01 71.8385 128.715 73.189 127.087 74.336C123.535 76.852 119.41 78.11 114.711 78.11C110.9 78.11 108.014 77.4995 106.053 76.2785C104.092 75.0205 103.111 73.448 103.111 71.561C103.111 68.194 104.425 66.085 107.052 65.234C107.792 64.975 108.717 64.8455 109.827 64.8455C110.974 64.8455 112.195 65.086 113.49 65.567C112.898 67.084 112.602 68.527 112.602 69.896C112.602 72.856 113.656 74.336 115.765 74.336C117.134 74.336 118.374 73.8365 119.484 72.8375C120.631 71.8385 121.204 70.784 121.204 69.674C121.204 68.527 120.834 67.5465 120.094 66.7325C119.391 65.9185 118.503 65.197 117.43 64.568C116.357 63.902 115.192 63.2545 113.934 62.6255C112.713 61.9965 111.566 61.238 110.493 60.35C107.977 58.315 106.719 55.6695 106.719 52.4135C106.719 50.3045 107.237 48.436 108.273 46.808C109.309 45.143 110.659 43.7555 112.324 42.6455C115.654 40.3885 119.354 39.26 123.424 39.26C127.531 39.26 130.565 39.8705 132.526 41.0915C134.524 42.3125 135.523 43.959 135.523 46.031C135.523 47.844 134.82 49.324 133.414 50.471C132.193 51.433 130.843 51.914 129.363 51.914C127.883 51.914 126.625 51.729 125.589 51.359ZM158.103 73.226C156.549 74.78 154.699 75.9825 152.553 76.8335C150.444 77.6845 148.335 78.11 146.226 78.11C144.117 78.11 142.692 77.925 141.952 77.555L140.232 86.99L128.965 88.1L136.624 48.695L145.671 47.7515L144.949 51.581C146.503 48.954 148.89 47.6405 152.109 47.6405C155.735 47.6405 158.51 48.806 160.434 51.137C162.136 53.246 162.987 55.91 162.987 59.129C162.987 62.348 162.561 65.1045 161.71 67.3985C160.859 69.6925 159.657 71.635 158.103 73.226ZM142.618 73.892C143.395 74.558 144.265 74.891 145.227 74.891C146.189 74.891 146.947 74.706 147.502 74.336C148.057 73.966 148.538 73.411 148.945 72.671C150.055 70.673 151.054 66.64 151.942 60.572C152.201 58.796 152.331 57.0385 152.331 55.2995C152.331 53.5605 152.127 52.4135 151.72 51.8585C151.35 51.3035 150.795 51.026 150.055 51.026C147.798 51.026 146.3 53.2275 145.56 57.6305L142.618 73.892ZM179.263 61.4045C180.595 59.0365 181.261 56.65 181.261 54.245C181.261 52.654 180.687 51.8585 179.54 51.8585C178.652 51.8585 177.746 52.617 176.821 54.134C175.859 55.651 175.23 57.39 174.934 59.351L172.048 77L160.559 78.11L166.22 48.695L175.378 47.585L174.379 53.1905C176.192 49.4535 179.133 47.585 183.203 47.585C185.349 47.585 186.996 48.14 188.143 49.25C189.327 50.36 189.919 52.062 189.919 54.356C189.919 56.613 189.16 58.463 187.643 59.906C186.163 61.349 184.147 62.0705 181.594 62.0705C180.484 62.0705 179.707 61.8485 179.263 61.4045ZM208.871 67.6205C209.796 68.2495 210.259 69.267 210.259 70.673C210.259 72.042 209.907 73.1705 209.204 74.0585C208.501 74.9465 207.576 75.6865 206.429 76.2785C204.061 77.4995 201.601 78.11 199.048 78.11C196.495 78.11 194.46 77.8325 192.943 77.2775C191.463 76.7225 190.223 75.927 189.224 74.891C187.263 72.93 186.283 70.155 186.283 66.566C186.283 60.979 187.8 56.4835 190.834 53.0795C194.09 49.4165 198.548 47.585 204.209 47.585C207.724 47.585 210.351 48.325 212.09 49.805C213.385 50.915 214.033 52.3765 214.033 54.1895C214.033 60.7015 208.409 63.9575 197.161 63.9575C197.013 64.9195 196.939 65.8075 196.939 66.6215C196.939 68.3235 197.309 69.5075 198.049 70.1735C198.826 70.8025 199.917 71.117 201.323 71.117C202.729 71.117 204.172 70.8025 205.652 70.1735C207.169 69.5075 208.242 68.6565 208.871 67.6205ZM197.549 61.571C200.176 61.571 202.248 60.757 203.765 59.129C205.282 57.575 206.041 55.5585 206.041 53.0795C206.041 52.2285 205.874 51.581 205.541 51.137C205.245 50.656 204.783 50.4155 204.154 50.4155C203.525 50.4155 202.933 50.545 202.378 50.804C201.86 51.026 201.323 51.544 200.768 52.358C199.399 54.208 198.326 57.279 197.549 61.571ZM213.879 75.335C213.028 74.373 212.399 73.1335 211.992 71.6165C211.622 70.0995 211.437 68.1015 211.437 65.6225C211.437 63.1435 211.862 60.7755 212.713 58.5185C213.564 56.2615 214.767 54.319 216.321 52.691C219.503 49.287 223.721 47.585 228.975 47.585C230.862 47.585 232.49 47.8995 233.859 48.5285L243.349 47.585L239.242 69.23C239.131 69.674 239.076 70.303 239.076 71.117C239.076 71.931 239.316 72.597 239.797 73.115C240.315 73.633 240.944 73.929 241.684 74.003C241.314 75.261 240.445 76.26 239.076 77C237.744 77.74 236.319 78.11 234.802 78.11C233.285 78.11 232.009 77.814 230.973 77.222C229.974 76.667 229.326 75.9085 229.03 74.9465C228.438 75.8715 227.513 76.63 226.255 77.222C224.997 77.814 223.517 78.11 221.815 78.11C220.15 78.11 218.633 77.888 217.264 77.444C215.895 77 214.767 76.297 213.879 75.335ZM225.589 52.802C225.182 53.468 224.794 54.3745 224.424 55.5215C224.054 56.6315 223.554 58.7035 222.925 61.7375C222.333 64.7345 222.037 67.306 222.037 69.452C222.037 71.598 222.204 72.9855 222.537 73.6145C222.87 74.2435 223.332 74.558 223.924 74.558C225.108 74.558 226.126 74.003 226.977 72.893C227.865 71.746 228.475 70.1735 228.808 68.1755L231.75 51.914C230.973 51.248 230.122 50.915 229.197 50.915C228.309 50.915 227.587 51.063 227.032 51.359C226.514 51.655 226.033 52.136 225.589 52.802ZM259.168 47.585C260.5 47.585 261.684 47.733 262.72 48.029C262.757 47.881 262.812 47.6035 262.886 47.1965L263.164 45.476C263.312 44.736 263.497 43.7555 263.719 42.5345L264.607 38.15L275.651 37.04L269.491 69.23C269.454 69.452 269.435 69.748 269.435 70.118V71.006C269.435 71.82 269.639 72.5415 270.046 73.1705C270.453 73.7625 270.989 74.0585 271.655 74.0585C270.915 75.7975 269.417 77.037 267.16 77.777C266.383 77.999 265.439 78.11 264.329 78.11C263.256 78.11 262.22 77.814 261.221 77.222C260.222 76.667 259.575 75.9085 259.279 74.9465C258.687 75.9085 257.799 76.667 256.615 77.222C255.431 77.814 253.969 78.11 252.23 78.11C250.528 78.11 248.956 77.888 247.513 77.444C246.107 77 244.96 76.297 244.072 75.335C242.444 73.448 241.63 70.3585 241.63 66.0665C241.63 60.5165 243.258 56.058 246.514 52.691C249.77 49.287 253.988 47.585 259.168 47.585ZM258.779 50.915C257.41 50.915 256.356 51.655 255.616 53.135C254.876 54.615 254.117 57.1865 253.34 60.8495C252.6 64.5125 252.23 67.9905 252.23 71.2835C252.23 73.5405 252.896 74.669 254.228 74.669C255.412 74.669 256.411 74.077 257.225 72.893C258.076 71.709 258.668 70.1365 259.001 68.1755L261.998 51.914C261.221 51.248 260.148 50.915 258.779 50.915Z" fill="#F59E0B"/>
<g clip-path="url(#clip0_2_38)">
<g filter="url(#filter0_di_2_38)">
<path d="M35.2255 75.9718V67.8588C40.0708 69.6617 45.547 70.5631 51.6543 70.5631C59.0687 70.5631 62.7758 68.0841 62.7758 63.1262C62.7758 59.5204 60.4997 57.7175 55.9474 57.7175H48.3753C38.482 57.7175 33.5353 53.2103 33.5353 44.1959C33.5353 34.28 40.5778 29.3221 54.6629 29.3221C60.0715 29.3221 65.1985 30.1109 70.0437 31.6884V39.8014C65.1985 37.9985 60.0715 37.0971 54.6629 37.0971C46.5499 37.0971 42.4934 39.4633 42.4934 44.1959C42.4934 47.8017 44.454 49.6046 48.3753 49.6046H55.9474C66.4718 49.6046 71.7339 54.1118 71.7339 63.1262C71.7339 73.2674 65.0407 78.338 51.6543 78.338C45.547 78.338 40.0708 77.5493 35.2255 75.9718Z" fill="#FBBF24"/>
</g>
<g filter="url(#filter1_di_2_38)">
<path d="M20.3138 85.7455C28.2782 93.7212 38.8843 98.5091 50.1341 99.2073C61.3838 99.9054 72.5005 96.4656 81.39 89.5358L111.977 120.123C113.062 121.171 114.515 121.75 116.023 121.737C117.531 121.724 118.973 121.119 120.04 120.053C121.106 118.986 121.711 117.544 121.724 116.036C121.737 114.528 121.157 113.075 120.11 111.99L89.5227 81.4031C96.7599 72.1152 100.182 60.4164 99.0898 48.6925C97.998 36.9685 92.4751 26.1026 83.6474 18.3108C74.8196 10.5189 63.352 6.38801 51.5833 6.76051C39.8145 7.13302 28.6311 11.9809 20.3138 20.3154C16.0162 24.6108 12.607 29.7109 10.281 35.3243C7.95507 40.9377 6.75789 46.9543 6.75789 53.0305C6.75789 59.1067 7.95507 65.1233 10.281 70.7367C12.607 76.35 16.0162 81.4501 20.3138 85.7455ZM28.4465 28.4597C34.1324 22.7739 41.6138 19.2355 49.616 18.4473C57.6182 17.6591 65.6462 19.6698 72.3321 24.1369C79.0181 28.604 83.9483 35.2511 86.2828 42.9457C88.6174 50.6403 88.2118 58.9063 85.1352 66.3354C82.0586 73.7645 76.5013 79.897 69.4101 83.6881C62.319 87.4792 54.1327 88.6944 46.2461 87.1265C38.3595 85.5587 31.2605 81.3049 26.1585 75.0898C21.0566 68.8747 18.2674 61.0829 18.2662 53.042C18.2504 48.4728 19.1422 43.9459 20.8898 39.7241C22.6374 35.5022 25.206 31.6695 28.4465 28.4482V28.4597Z" fill="#F59E0B"/>
</g>
</g>
<defs>
<filter id="filter0_di_2_38" x="28.5457" y="29.3221" width="48.1778" height="58.9951" filterUnits="userSpaceOnUse" color-interpolation-filters="sRGB">
<feFlood flood-opacity="0" result="BackgroundImageFix"/>
<feColorMatrix in="SourceAlpha" type="matrix" values="0 0 0 0 0 0 0 0 0 0 0 0 0 0 0 0 0 0 127 0" result="hardAlpha"/>
<feOffset dy="4.9896"/>
<feGaussianBlur stdDeviation="2.4948"/>
<feComposite in2="hardAlpha" operator="out"/>
<feColorMatrix type="matrix" values="0 0 0 0 0 0 0 0 0 0 0 0 0 0 0 0 0 0 0.25 0"/>
<feBlend mode="normal" in2="BackgroundImageFix" result="effect1_dropShadow_2_38"/>
<feBlend mode="normal" in="SourceGraphic" in2="effect1_dropShadow_2_38" result="shape"/>
<feColorMatrix in="SourceAlpha" type="matrix" values="0 0 0 0 0 0 0 0 0 0 0 0 0 0 0 0 0 0 127 0" result="hardAlpha"/>
<feOffset dy="4.9896"/>
<feGaussianBlur stdDeviation="2.4948"/>
<feComposite in2="hardAlpha" operator="arithmetic" k2="-1" k3="1"/>
<feColorMatrix type="matrix" values="0 0 0 0 0 0 0 0 0 0 0 0 0 0 0 0 0 0 0.25 0"/>
<feBlend mode="normal" in2="shape" result="effect2_innerShadow_2_38"/>
</filter>
<filter id="filter1_di_2_38" x="2.44419" y="6.73734" width="123.594" height="123.627" filterUnits="userSpaceOnUse" color-interpolation-filters="sRGB">
<feFlood flood-opacity="0" result="BackgroundImageFix"/>
<feColorMatrix in="SourceAlpha" type="matrix" values="0 0 0 0 0 0 0 0 0 0 0 0 0 0 0 0 0 0 127 0" result="hardAlpha"/>
<feOffset dy="4.3137"/>
<feGaussianBlur stdDeviation="2.15685"/>
<feComposite in2="hardAlpha" operator="out"/>
<feColorMatrix type="matrix" values="0 0 0 0 0 0 0 0 0 0 0 0 0 0 0 0 0 0 0.25 0"/>
<feBlend mode="normal" in2="BackgroundImageFix" result="effect1_dropShadow_2_38"/>
<feBlend mode="normal" in="SourceGraphic" in2="effect1_dropShadow_2_38" result="shape"/>
<feColorMatrix in="SourceAlpha" type="matrix" values="0 0 0 0 0 0 0 0 0 0 0 0 0 0 0 0 0 0 127 0" result="hardAlpha"/>
<feOffset dy="4.3137"/>
<feGaussianBlur stdDeviation="2.15685"/>
<feComposite in2="hardAlpha" operator="arithmetic" k2="-1" k3="1"/>
<feColorMatrix type="matrix" values="0 0 0 0 0 0 0 0 0 0 0 0 0 0 0 0 0 0 0.25 0"/>
<feBlend mode="normal" in2="shape" result="effect2_innerShadow_2_38"/>
</filter>
<clipPath id="clip0_2_38">
<rect width="128" height="128" fill="white"/>
</clipPath>
</defs>
</svg>
