<svg width="30" height="30" viewBox="0 0 30 30" fill="none" xmlns="http://www.w3.org/2000/svg">
<path d="M26.25 16.25C26.25 15.5598 25.6903 15 25 15H23.5254L23.1923 13.3264C22.7028 10.8715 21.9844 8.4454 21.0554 6.11515C20.6336 5.05677 19.7687 4.25665 18.683 3.91915C17.5984 3.5829 16.4356 3.75127 15.4921 4.38365C15.193 4.58265 14.8067 4.58265 14.5089 4.38365C13.5651 3.75252 12.403 3.58402 11.3171 3.91915C10.2313 4.25665 9.3665 5.0569 8.94475 6.11515C8.01638 8.44552 7.29738 10.8716 6.8085 13.3264L6.47488 15H5C4.30975 15 3.75 15.5598 3.75 16.25C3.75 16.9403 4.30975 17.5 5 17.5H7.5H22.5H25C25.6903 17.5 26.25 16.9403 26.25 16.25ZM12.0588 6.30677C12.4158 6.19452 12.8046 6.25065 13.1189 6.46115C14.2615 7.22527 15.7379 7.22527 16.8818 6.46115C17.1955 6.25052 17.583 6.19502 17.9414 6.30677C18.3039 6.41902 18.592 6.6864 18.733 7.0404C19.1194 8.0104 19.4605 9.00015 19.7681 10H10.232C10.5395 9.00015 10.8806 8.0104 11.2671 7.0404C11.4081 6.6864 11.6961 6.41915 12.0588 6.30677ZM9.0235 15L9.26038 13.8148C9.34775 13.375 9.4505 12.9374 9.55363 12.5H20.4464C20.5495 12.9374 20.6523 13.375 20.7397 13.8148L20.9765 15H9.0235ZM16.6889 21.25H13.3113C12.6062 19.7773 11.1136 18.75 9.37512 18.75C6.96288 18.75 5 20.7129 5 23.125C5 25.5371 6.96287 27.5 9.375 27.5C11.5731 27.5 13.3802 25.8646 13.6869 23.75H16.3132C16.6198 25.8646 18.427 27.5 20.6251 27.5C23.0372 27.5 25.0001 25.5371 25.0001 23.125C25.0001 20.7129 23.0371 18.75 20.625 18.75C18.8864 18.75 17.3939 19.7773 16.6889 21.25ZM9.375 25C8.34113 25 7.5 24.1589 7.5 23.125C7.5 22.0911 8.34113 21.25 9.375 21.25C10.4089 21.25 11.25 22.0911 11.25 23.125C11.25 24.1589 10.4089 25 9.375 25ZM22.5 23.125C22.5 24.1589 21.6589 25 20.625 25C19.5911 25 18.75 24.1589 18.75 23.125C18.75 22.0911 19.5911 21.25 20.625 21.25C21.6589 21.25 22.5 22.0911 22.5 23.125Z" fill="#FFFFF3"/>
</svg>
