<svg width="367" height="135" viewBox="0 0 367 135" fill="none" xmlns="http://www.w3.org/2000/svg">
<g filter="url(#filter0_d_16_97)">
<mask id="path-1-outside-1_16_97" maskUnits="userSpaceOnUse" x="139.597" y="30.2739" width="228" height="67" fill="black">
<rect fill="white" x="139.597" y="30.2739" width="228" height="67"/>
<path d="M168.948 51.4968C169.571 50.2511 169.883 49.0468 169.883 47.8841C169.883 46.7214 169.82 45.8286 169.696 45.2057C169.571 44.5413 169.364 43.96 169.073 43.4617C168.45 42.382 167.516 41.8422 166.27 41.8422C164.733 41.8422 163.342 42.4028 162.097 43.524C160.768 44.6867 160.103 46.1816 160.103 48.0087C160.103 49.1714 160.498 50.2096 161.287 51.1231C162.117 51.9951 163.156 52.8464 164.401 53.6769C165.647 54.5074 166.976 55.3379 168.388 56.1684C169.8 56.999 171.128 57.9125 172.374 58.9091C175.239 61.193 176.672 63.8714 176.672 66.9443C176.672 69.0205 176.111 70.9515 174.99 72.7371C173.911 74.4811 172.457 75.9968 170.63 77.2841C166.644 80.1078 162.014 81.5197 156.74 81.5197C152.463 81.5197 149.224 80.8345 147.023 79.4642C144.822 78.0523 143.722 76.2875 143.722 74.1697C143.722 70.3909 145.196 68.0239 148.144 67.0689C148.975 66.7782 150.013 66.6328 151.258 66.6328C152.546 66.6328 153.916 66.9028 155.369 67.4426C154.705 69.1451 154.373 70.7646 154.373 72.3011C154.373 75.6231 155.556 77.2841 157.923 77.2841C159.46 77.2841 160.851 76.7235 162.097 75.6023C163.384 74.4811 164.028 73.2977 164.028 72.0519C164.028 70.7646 163.612 69.6642 162.782 68.7506C161.993 67.8371 160.996 67.0273 159.792 66.3214C158.588 65.5739 157.28 64.8472 155.868 64.1413C154.497 63.4354 153.21 62.5841 152.006 61.5875C149.182 59.3036 147.77 56.3345 147.77 52.6803C147.77 50.3134 148.352 48.2163 149.514 46.3892C150.677 44.5206 152.193 42.9634 154.061 41.7176C157.799 39.1846 161.951 37.918 166.519 37.918C171.128 37.918 174.533 38.6032 176.734 39.9735C178.977 41.3439 180.098 43.1918 180.098 45.5172C180.098 47.5519 179.309 49.2129 177.731 50.5002C176.361 51.5799 174.845 52.1197 173.184 52.1197C171.523 52.1197 170.111 51.9121 168.948 51.4968ZM210.422 76.0383C208.678 77.7824 206.602 79.132 204.194 80.0871C201.827 81.0421 199.46 81.5197 197.093 81.5197C194.726 81.5197 193.127 81.3121 192.297 80.8968L190.366 91.4858L177.721 92.7315L186.317 48.507L196.47 47.4481L195.66 51.746C197.404 48.7977 200.083 47.3235 203.695 47.3235C207.765 47.3235 210.879 48.6316 213.039 51.2477C214.949 53.6146 215.904 56.6045 215.904 60.2172C215.904 63.8299 215.426 66.9235 214.471 69.4981C213.516 72.0727 212.166 74.2527 210.422 76.0383ZM193.044 76.7858C193.916 77.5333 194.892 77.907 195.972 77.907C197.051 77.907 197.903 77.6994 198.525 77.2841C199.148 76.8688 199.688 76.246 200.145 75.4155C201.391 73.1731 202.512 68.6468 203.508 61.8367C203.799 59.8434 203.944 57.871 203.944 55.9193C203.944 53.9676 203.716 52.6803 203.259 52.0574C202.844 51.4345 202.221 51.1231 201.391 51.1231C198.858 51.1231 197.176 53.5939 196.345 58.5354L193.044 76.7858ZM239.153 62.771C240.648 60.1134 241.396 57.435 241.396 54.7358C241.396 52.9502 240.752 52.0574 239.465 52.0574C238.468 52.0574 237.451 52.9087 236.413 54.6112C235.333 56.3138 234.627 58.2655 234.295 60.4663L231.056 80.2739L218.162 81.5197L224.516 48.507L234.793 47.2612L233.672 53.5523C235.707 49.3583 239.008 47.2612 243.576 47.2612C245.984 47.2612 247.832 47.8841 249.119 49.1299C250.448 50.3757 251.113 52.2858 251.113 54.8604C251.113 57.3934 250.261 59.4697 248.559 61.0892C246.898 62.7087 244.635 63.5184 241.769 63.5184C240.524 63.5184 239.652 63.2693 239.153 62.771ZM277.366 69.7472C278.404 70.4532 278.923 71.5951 278.923 73.1731C278.923 74.7095 278.529 75.976 277.74 76.9727C276.951 77.9693 275.913 78.7998 274.625 79.4642C271.968 80.8345 269.206 81.5197 266.341 81.5197C263.476 81.5197 261.192 81.2082 259.489 80.5854C257.828 79.9625 256.437 79.0697 255.316 77.907C253.115 75.7061 252.015 72.5917 252.015 68.5638C252.015 62.2934 253.717 57.2481 257.122 53.4278C260.777 49.3168 265.78 47.2612 272.134 47.2612C276.079 47.2612 279.027 48.0918 280.979 49.7528C282.432 50.9985 283.159 52.6388 283.159 54.6735C283.159 61.982 276.847 65.6362 264.223 65.6362C264.057 66.7159 263.974 67.7125 263.974 68.6261C263.974 70.5362 264.389 71.865 265.22 72.6125C266.092 73.3184 267.317 73.6714 268.895 73.6714C270.473 73.6714 272.092 73.3184 273.753 72.6125C275.456 71.865 276.66 70.91 277.366 69.7472ZM264.659 62.9578C267.608 62.9578 269.933 62.0443 271.636 60.2172C273.338 58.4731 274.189 56.21 274.189 53.4278C274.189 52.4727 274.002 51.746 273.629 51.2477C273.297 50.7079 272.777 50.4379 272.072 50.4379C271.366 50.4379 270.701 50.5833 270.078 50.874C269.497 51.1231 268.895 51.7045 268.272 52.618C266.736 54.6943 265.531 58.1409 264.659 62.9578ZM287.969 78.4053C287.014 77.3256 286.308 75.9345 285.851 74.232C285.436 72.5294 285.228 70.2871 285.228 67.5049C285.228 64.7227 285.706 62.065 286.661 59.532C287.616 56.999 288.966 54.8189 290.71 52.9918C294.281 49.1714 299.015 47.2612 304.911 47.2612C307.029 47.2612 308.856 47.6142 310.393 48.3201L321.044 47.2612L316.435 71.5536C316.31 72.0519 316.248 72.7578 316.248 73.6714C316.248 74.5849 316.518 75.3324 317.058 75.9138C317.639 76.4951 318.345 76.8273 319.175 76.9104C318.76 78.3222 317.784 79.4434 316.248 80.2739C314.753 81.1044 313.154 81.5197 311.452 81.5197C309.749 81.5197 308.317 81.1875 307.154 80.5231C306.033 79.9002 305.306 79.0489 304.974 77.9693C304.309 79.0074 303.271 79.8587 301.859 80.5231C300.447 81.1875 298.786 81.5197 296.876 81.5197C295.008 81.5197 293.305 81.2705 291.769 80.7722C290.232 80.2739 288.966 79.4849 287.969 78.4053ZM301.112 53.1163C300.655 53.8638 300.219 54.8812 299.804 56.1684C299.389 57.4142 298.828 59.7396 298.122 63.1447C297.458 66.5083 297.125 69.3943 297.125 71.8027C297.125 74.2112 297.312 75.7684 297.686 76.4744C298.06 77.1803 298.579 77.5333 299.243 77.5333C300.572 77.5333 301.714 76.9104 302.669 75.6646C303.666 74.3773 304.351 72.6125 304.725 70.3701L308.026 52.1197C307.154 51.3723 306.199 50.9985 305.161 50.9985C304.164 50.9985 303.354 51.1646 302.731 51.4968C302.15 51.829 301.61 52.3689 301.112 53.1163ZM343.781 47.2612C345.276 47.2612 346.604 47.4274 347.767 47.7596C347.809 47.5935 347.871 47.282 347.954 46.8252L348.265 44.8943C348.432 44.0638 348.639 42.9634 348.888 41.593L349.885 36.6723L362.28 35.4265L355.366 71.5536C355.325 71.8027 355.304 72.135 355.304 72.5502V73.5468C355.304 74.4604 355.532 75.2701 355.989 75.976C356.446 76.6405 357.048 76.9727 357.795 76.9727C356.965 78.9244 355.283 80.3155 352.75 81.146C351.878 81.3951 350.819 81.5197 349.573 81.5197C348.369 81.5197 347.207 81.1875 346.085 80.5231C344.964 79.9002 344.237 79.0489 343.905 77.9693C343.241 79.0489 342.244 79.9002 340.915 80.5231C339.587 81.1875 337.946 81.5197 335.995 81.5197C334.085 81.5197 332.32 81.2705 330.7 80.7722C329.122 80.2739 327.835 79.4849 326.838 78.4053C325.011 76.2875 324.098 72.8201 324.098 68.0032C324.098 61.7744 325.925 56.7706 329.579 52.9918C333.233 49.1714 337.967 47.2612 343.781 47.2612ZM343.345 50.9985C341.808 50.9985 340.625 51.829 339.794 53.4901C338.964 55.1511 338.112 58.0371 337.24 62.1481C336.41 66.2591 335.995 70.1625 335.995 73.8583C335.995 76.3913 336.742 77.6578 338.237 77.6578C339.566 77.6578 340.687 76.9934 341.601 75.6646C342.556 74.3358 343.22 72.571 343.594 70.3701L346.957 52.1197C346.085 51.3723 344.881 50.9985 343.345 50.9985Z"/>
</mask>
<path d="M168.948 51.4968C169.571 50.2511 169.883 49.0468 169.883 47.8841C169.883 46.7214 169.82 45.8286 169.696 45.2057C169.571 44.5413 169.364 43.96 169.073 43.4617C168.45 42.382 167.516 41.8422 166.27 41.8422C164.733 41.8422 163.342 42.4028 162.097 43.524C160.768 44.6867 160.103 46.1816 160.103 48.0087C160.103 49.1714 160.498 50.2096 161.287 51.1231C162.117 51.9951 163.156 52.8464 164.401 53.6769C165.647 54.5074 166.976 55.3379 168.388 56.1684C169.8 56.999 171.128 57.9125 172.374 58.9091C175.239 61.193 176.672 63.8714 176.672 66.9443C176.672 69.0205 176.111 70.9515 174.99 72.7371C173.911 74.4811 172.457 75.9968 170.63 77.2841C166.644 80.1078 162.014 81.5197 156.74 81.5197C152.463 81.5197 149.224 80.8345 147.023 79.4642C144.822 78.0523 143.722 76.2875 143.722 74.1697C143.722 70.3909 145.196 68.0239 148.144 67.0689C148.975 66.7782 150.013 66.6328 151.258 66.6328C152.546 66.6328 153.916 66.9028 155.369 67.4426C154.705 69.1451 154.373 70.7646 154.373 72.3011C154.373 75.6231 155.556 77.2841 157.923 77.2841C159.46 77.2841 160.851 76.7235 162.097 75.6023C163.384 74.4811 164.028 73.2977 164.028 72.0519C164.028 70.7646 163.612 69.6642 162.782 68.7506C161.993 67.8371 160.996 67.0273 159.792 66.3214C158.588 65.5739 157.28 64.8472 155.868 64.1413C154.497 63.4354 153.21 62.5841 152.006 61.5875C149.182 59.3036 147.77 56.3345 147.77 52.6803C147.77 50.3134 148.352 48.2163 149.514 46.3892C150.677 44.5206 152.193 42.9634 154.061 41.7176C157.799 39.1846 161.951 37.918 166.519 37.918C171.128 37.918 174.533 38.6032 176.734 39.9735C178.977 41.3439 180.098 43.1918 180.098 45.5172C180.098 47.5519 179.309 49.2129 177.731 50.5002C176.361 51.5799 174.845 52.1197 173.184 52.1197C171.523 52.1197 170.111 51.9121 168.948 51.4968ZM210.422 76.0383C208.678 77.7824 206.602 79.132 204.194 80.0871C201.827 81.0421 199.46 81.5197 197.093 81.5197C194.726 81.5197 193.127 81.3121 192.297 80.8968L190.366 91.4858L177.721 92.7315L186.317 48.507L196.47 47.4481L195.66 51.746C197.404 48.7977 200.083 47.3235 203.695 47.3235C207.765 47.3235 210.879 48.6316 213.039 51.2477C214.949 53.6146 215.904 56.6045 215.904 60.2172C215.904 63.8299 215.426 66.9235 214.471 69.4981C213.516 72.0727 212.166 74.2527 210.422 76.0383ZM193.044 76.7858C193.916 77.5333 194.892 77.907 195.972 77.907C197.051 77.907 197.903 77.6994 198.525 77.2841C199.148 76.8688 199.688 76.246 200.145 75.4155C201.391 73.1731 202.512 68.6468 203.508 61.8367C203.799 59.8434 203.944 57.871 203.944 55.9193C203.944 53.9676 203.716 52.6803 203.259 52.0574C202.844 51.4345 202.221 51.1231 201.391 51.1231C198.858 51.1231 197.176 53.5939 196.345 58.5354L193.044 76.7858ZM239.153 62.771C240.648 60.1134 241.396 57.435 241.396 54.7358C241.396 52.9502 240.752 52.0574 239.465 52.0574C238.468 52.0574 237.451 52.9087 236.413 54.6112C235.333 56.3138 234.627 58.2655 234.295 60.4663L231.056 80.2739L218.162 81.5197L224.516 48.507L234.793 47.2612L233.672 53.5523C235.707 49.3583 239.008 47.2612 243.576 47.2612C245.984 47.2612 247.832 47.8841 249.119 49.1299C250.448 50.3757 251.113 52.2858 251.113 54.8604C251.113 57.3934 250.261 59.4697 248.559 61.0892C246.898 62.7087 244.635 63.5184 241.769 63.5184C240.524 63.5184 239.652 63.2693 239.153 62.771ZM277.366 69.7472C278.404 70.4532 278.923 71.5951 278.923 73.1731C278.923 74.7095 278.529 75.976 277.74 76.9727C276.951 77.9693 275.913 78.7998 274.625 79.4642C271.968 80.8345 269.206 81.5197 266.341 81.5197C263.476 81.5197 261.192 81.2082 259.489 80.5854C257.828 79.9625 256.437 79.0697 255.316 77.907C253.115 75.7061 252.015 72.5917 252.015 68.5638C252.015 62.2934 253.717 57.2481 257.122 53.4278C260.777 49.3168 265.78 47.2612 272.134 47.2612C276.079 47.2612 279.027 48.0918 280.979 49.7528C282.432 50.9985 283.159 52.6388 283.159 54.6735C283.159 61.982 276.847 65.6362 264.223 65.6362C264.057 66.7159 263.974 67.7125 263.974 68.6261C263.974 70.5362 264.389 71.865 265.22 72.6125C266.092 73.3184 267.317 73.6714 268.895 73.6714C270.473 73.6714 272.092 73.3184 273.753 72.6125C275.456 71.865 276.66 70.91 277.366 69.7472ZM264.659 62.9578C267.608 62.9578 269.933 62.0443 271.636 60.2172C273.338 58.4731 274.189 56.21 274.189 53.4278C274.189 52.4727 274.002 51.746 273.629 51.2477C273.297 50.7079 272.777 50.4379 272.072 50.4379C271.366 50.4379 270.701 50.5833 270.078 50.874C269.497 51.1231 268.895 51.7045 268.272 52.618C266.736 54.6943 265.531 58.1409 264.659 62.9578ZM287.969 78.4053C287.014 77.3256 286.308 75.9345 285.851 74.232C285.436 72.5294 285.228 70.2871 285.228 67.5049C285.228 64.7227 285.706 62.065 286.661 59.532C287.616 56.999 288.966 54.8189 290.71 52.9918C294.281 49.1714 299.015 47.2612 304.911 47.2612C307.029 47.2612 308.856 47.6142 310.393 48.3201L321.044 47.2612L316.435 71.5536C316.31 72.0519 316.248 72.7578 316.248 73.6714C316.248 74.5849 316.518 75.3324 317.058 75.9138C317.639 76.4951 318.345 76.8273 319.175 76.9104C318.76 78.3222 317.784 79.4434 316.248 80.2739C314.753 81.1044 313.154 81.5197 311.452 81.5197C309.749 81.5197 308.317 81.1875 307.154 80.5231C306.033 79.9002 305.306 79.0489 304.974 77.9693C304.309 79.0074 303.271 79.8587 301.859 80.5231C300.447 81.1875 298.786 81.5197 296.876 81.5197C295.008 81.5197 293.305 81.2705 291.769 80.7722C290.232 80.2739 288.966 79.4849 287.969 78.4053ZM301.112 53.1163C300.655 53.8638 300.219 54.8812 299.804 56.1684C299.389 57.4142 298.828 59.7396 298.122 63.1447C297.458 66.5083 297.125 69.3943 297.125 71.8027C297.125 74.2112 297.312 75.7684 297.686 76.4744C298.06 77.1803 298.579 77.5333 299.243 77.5333C300.572 77.5333 301.714 76.9104 302.669 75.6646C303.666 74.3773 304.351 72.6125 304.725 70.3701L308.026 52.1197C307.154 51.3723 306.199 50.9985 305.161 50.9985C304.164 50.9985 303.354 51.1646 302.731 51.4968C302.15 51.829 301.61 52.3689 301.112 53.1163ZM343.781 47.2612C345.276 47.2612 346.604 47.4274 347.767 47.7596C347.809 47.5935 347.871 47.282 347.954 46.8252L348.265 44.8943C348.432 44.0638 348.639 42.9634 348.888 41.593L349.885 36.6723L362.28 35.4265L355.366 71.5536C355.325 71.8027 355.304 72.135 355.304 72.5502V73.5468C355.304 74.4604 355.532 75.2701 355.989 75.976C356.446 76.6405 357.048 76.9727 357.795 76.9727C356.965 78.9244 355.283 80.3155 352.75 81.146C351.878 81.3951 350.819 81.5197 349.573 81.5197C348.369 81.5197 347.207 81.1875 346.085 80.5231C344.964 79.9002 344.237 79.0489 343.905 77.9693C343.241 79.0489 342.244 79.9002 340.915 80.5231C339.587 81.1875 337.946 81.5197 335.995 81.5197C334.085 81.5197 332.32 81.2705 330.7 80.7722C329.122 80.2739 327.835 79.4849 326.838 78.4053C325.011 76.2875 324.098 72.8201 324.098 68.0032C324.098 61.7744 325.925 56.7706 329.579 52.9918C333.233 49.1714 337.967 47.2612 343.781 47.2612ZM343.345 50.9985C341.808 50.9985 340.625 51.829 339.794 53.4901C338.964 55.1511 338.112 58.0371 337.24 62.1481C336.41 66.2591 335.995 70.1625 335.995 73.8583C335.995 76.3913 336.742 77.6578 338.237 77.6578C339.566 77.6578 340.687 76.9934 341.601 75.6646C342.556 74.3358 343.22 72.571 343.594 70.3701L346.957 52.1197C346.085 51.3723 344.881 50.9985 343.345 50.9985Z" fill="#F6ED23"/>
<path d="M168.948 51.4968L165.466 49.7558L163.501 53.6854L167.639 55.163L168.948 51.4968ZM169.696 45.2057L165.869 45.9232L165.874 45.9462L165.878 45.9692L169.696 45.2057ZM169.073 43.4617L165.701 45.4071L165.705 45.4152L165.71 45.4233L169.073 43.4617ZM162.097 43.524L164.66 46.4537L164.681 46.4358L164.701 46.4176L162.097 43.524ZM161.287 51.1231L158.341 53.6677L158.402 53.7393L158.468 53.8079L161.287 51.1231ZM168.388 56.1684L170.362 52.8129L170.362 52.8129L168.388 56.1684ZM172.374 58.9091L169.942 61.949L169.948 61.9533L172.374 58.9091ZM174.99 72.7371L171.693 70.6669L171.687 70.6774L171.68 70.688L174.99 72.7371ZM170.63 77.2841L168.388 74.1016L168.38 74.1073L170.63 77.2841ZM147.023 79.4642L144.921 82.7409L144.943 82.7551L144.965 82.7689L147.023 79.4642ZM148.144 67.0689L149.344 70.7724L149.387 70.7583L149.43 70.7433L148.144 67.0689ZM155.369 67.4426L158.996 68.8579L160.435 65.1711L156.725 63.7932L155.369 67.4426ZM162.097 75.6023L159.54 72.6667L159.516 72.6875L159.492 72.7087L162.097 75.6023ZM162.782 68.7506L159.835 71.2952L159.868 71.3327L159.901 71.3694L162.782 68.7506ZM159.792 66.3214L157.739 69.6291L157.781 69.655L157.823 69.6799L159.792 66.3214ZM155.868 64.1413L154.085 67.6021L154.106 67.6128L154.127 67.6233L155.868 64.1413ZM152.006 61.5875L154.488 58.5884L154.471 58.5744L154.454 58.5606L152.006 61.5875ZM149.514 46.3892L152.799 48.4793L152.809 48.4626L152.82 48.4459L149.514 46.3892ZM154.061 41.7176L156.221 44.9568L156.233 44.9485L156.246 44.9402L154.061 41.7176ZM176.734 39.9735L174.677 43.2783L174.69 43.2869L174.704 43.2954L176.734 39.9735ZM177.731 50.5002L180.14 53.5582L180.166 53.5377L180.192 53.5168L177.731 50.5002ZM172.43 53.2378C173.27 51.5574 173.776 49.7594 173.776 47.8841H165.99C165.99 48.3342 165.872 48.9447 165.466 49.7558L172.43 53.2378ZM173.776 47.8841C173.776 46.6387 173.713 45.4433 173.513 44.4423L165.878 45.9692C165.927 46.214 165.99 46.8041 165.99 47.8841H173.776ZM173.522 44.4883C173.329 43.4594 172.986 42.4433 172.436 41.5001L165.71 45.4233C165.741 45.4766 165.813 45.6233 165.869 45.9232L173.522 44.4883ZM172.445 41.5163C171.127 39.2323 168.908 37.9492 166.27 37.9492V45.7352C166.316 45.7352 166.169 45.7399 165.957 45.6179C165.746 45.4959 165.677 45.3662 165.701 45.4071L172.445 41.5163ZM166.27 37.9492C163.681 37.9492 161.383 38.9291 159.492 40.6303L164.701 46.4176C165.302 45.8764 165.786 45.7352 166.27 45.7352V37.9492ZM159.533 40.5942C157.326 42.525 156.21 45.1036 156.21 48.0087H163.996C163.996 47.2596 164.209 46.8484 164.66 46.4537L159.533 40.5942ZM156.21 48.0087C156.21 50.1439 156.966 52.0765 158.341 53.6677L164.233 48.5786C164.029 48.3426 163.996 48.1989 163.996 48.0087H156.21ZM158.468 53.8079C159.538 54.9318 160.812 55.9627 162.242 56.9161L166.561 50.4377C165.499 49.7302 164.697 49.0585 164.106 48.4383L158.468 53.8079ZM162.242 56.9161C163.554 57.7907 164.945 58.6598 166.414 59.524L170.362 52.8129C169.007 52.0161 167.74 51.2242 166.561 50.4377L162.242 56.9161ZM166.414 59.524C167.67 60.2628 168.845 61.0715 169.942 61.949L174.806 55.8692C173.412 54.7535 171.929 53.7351 170.362 52.8129L166.414 59.524ZM169.948 61.9533C172.085 63.6569 172.779 65.2891 172.779 66.9443H180.565C180.565 62.4537 178.394 58.7291 174.801 55.8649L169.948 61.9533ZM172.779 66.9443C172.779 68.2763 172.431 69.4914 171.693 70.6669L178.287 74.8072C179.791 72.4116 180.565 69.7648 180.565 66.9443H172.779ZM171.68 70.688C170.9 71.9476 169.825 73.0891 168.388 74.1016L172.872 80.4666C175.089 78.9045 176.921 77.0147 178.3 74.7862L171.68 70.688ZM168.38 74.1073C165.104 76.4275 161.275 77.6267 156.74 77.6267V85.4127C162.752 85.4127 168.183 83.7882 172.88 80.4609L168.38 74.1073ZM156.74 77.6267C152.766 77.6267 150.383 76.9702 149.081 76.1594L144.965 82.7689C148.065 84.6988 152.159 85.4127 156.74 85.4127V77.6267ZM149.125 76.1875C147.74 75.2989 147.615 74.6403 147.615 74.1697H139.829C139.829 77.9346 141.904 80.8057 144.921 82.7409L149.125 76.1875ZM147.615 74.1697C147.615 72.7577 147.893 72.0018 148.132 71.6185C148.328 71.3026 148.639 71.0006 149.344 70.7724L146.944 63.3653C144.7 64.0922 142.8 65.4512 141.523 67.5023C140.287 69.4859 139.829 71.8029 139.829 74.1697H147.615ZM149.43 70.7433C149.715 70.6438 150.283 70.5258 151.258 70.5258V62.7398C149.742 62.7398 148.235 62.9126 146.858 63.3944L149.43 70.7433ZM151.258 70.5258C151.999 70.5258 152.908 70.6813 154.014 71.092L156.725 63.7932C154.924 63.1243 153.092 62.7398 151.258 62.7398V70.5258ZM151.743 66.0273C150.935 68.0973 150.48 70.1981 150.48 72.3011H158.266C158.266 71.3311 158.475 70.1929 158.996 68.8579L151.743 66.0273ZM150.48 72.3011C150.48 74.3065 150.816 76.5092 152.09 78.2973C153.537 80.3284 155.713 81.1771 157.923 81.1771V73.3911C157.785 73.3911 157.851 73.3676 158.02 73.4465C158.209 73.5349 158.354 73.6713 158.431 73.7793C158.491 73.8631 158.443 73.8361 158.382 73.5816C158.322 73.3255 158.266 72.9129 158.266 72.3011H150.48ZM157.923 81.1771C160.512 81.1771 162.811 80.1972 164.701 78.496L159.492 72.7087C158.891 73.2498 158.407 73.3911 157.923 73.3911V81.1771ZM164.653 78.538C166.461 76.9638 167.921 74.7963 167.921 72.0519H160.135C160.135 71.9728 160.162 71.9452 160.125 72.0139C160.075 72.1061 159.923 72.3326 159.54 72.6667L164.653 78.538ZM167.921 72.0519C167.921 69.8415 167.174 67.795 165.662 66.1319L159.901 71.3694C160.05 71.5334 160.135 71.6877 160.135 72.0519H167.921ZM165.728 66.2061C164.62 64.9234 163.277 63.8516 161.761 62.9629L157.823 69.6799C158.716 70.203 159.365 70.7508 159.835 71.2952L165.728 66.2061ZM161.845 63.0137C160.529 62.1968 159.115 61.4127 157.609 60.6593L154.127 67.6233C155.444 68.2818 156.647 68.951 157.739 69.6291L161.845 63.0137ZM157.651 60.6805C156.533 60.1047 155.479 59.4089 154.488 58.5884L149.524 64.5867C150.941 65.7593 152.462 66.7661 154.085 67.6021L157.651 60.6805ZM154.454 58.5606C152.551 57.0212 151.663 55.1677 151.663 52.6803H143.877C143.877 57.5014 145.814 61.586 149.558 64.6144L154.454 58.5606ZM151.663 52.6803C151.663 50.9823 152.07 49.6241 152.799 48.4793L146.23 44.2992C144.633 46.8086 143.877 49.6444 143.877 52.6803H151.663ZM152.82 48.4459C153.683 47.0584 154.804 45.9011 156.221 44.9568L151.902 38.4784C149.581 40.0257 147.671 41.9827 146.209 44.3325L152.82 48.4459ZM156.246 44.9402C159.33 42.8495 162.72 41.811 166.519 41.811V34.025C161.182 34.025 156.267 35.5197 151.877 38.4951L156.246 44.9402ZM166.519 41.811C170.892 41.811 173.408 42.4883 174.677 43.2783L178.792 36.6688C175.659 34.7181 171.365 34.025 166.519 34.025V41.811ZM174.704 43.2954C175.969 44.068 176.205 44.7455 176.205 45.5172H183.991C183.991 41.6381 181.985 38.6198 178.764 36.6517L174.704 43.2954ZM176.205 45.5172C176.205 46.3812 175.943 46.935 175.27 47.4837L180.192 53.5168C182.675 51.4909 183.991 48.7227 183.991 45.5172H176.205ZM175.322 47.4423C174.601 48.0103 173.925 48.2267 173.184 48.2267V56.0127C175.765 56.0127 178.12 55.1495 180.14 53.5582L175.322 47.4423ZM173.184 48.2267C171.825 48.2267 170.883 48.054 170.258 47.8306L167.639 55.163C169.339 55.7702 171.221 56.0127 173.184 56.0127V48.2267ZM210.422 76.0383L213.175 78.7911L213.191 78.7749L213.207 78.7585L210.422 76.0383ZM204.194 80.0871L202.759 76.4682L202.748 76.4725L202.737 76.4769L204.194 80.0871ZM192.297 80.8968L194.038 77.4148L189.397 75.0947L188.467 80.1984L192.297 80.8968ZM190.366 91.4858L190.747 95.36L193.669 95.0722L194.195 92.1842L190.366 91.4858ZM177.721 92.7315L173.9 91.9888L172.903 97.1181L178.103 96.6058L177.721 92.7315ZM186.317 48.507L185.913 44.635L183.046 44.9341L182.495 47.7642L186.317 48.507ZM196.47 47.4481L200.296 48.1689L201.263 43.0341L196.066 43.5761L196.47 47.4481ZM195.66 51.746L191.834 51.0252L199.011 53.7281L195.66 51.746ZM213.039 51.2477L216.068 48.8028L216.055 48.7861L216.041 48.7695L213.039 51.2477ZM214.471 69.4981L218.121 70.8521L214.471 69.4981ZM193.044 76.7858L189.213 76.0928L188.816 78.2891L190.511 79.7416L193.044 76.7858ZM198.525 77.2841L200.685 80.5233H200.685L198.525 77.2841ZM200.145 75.4155L196.742 73.5248L196.738 73.5321L196.734 73.5393L200.145 75.4155ZM203.508 61.8367L207.36 62.4004L207.361 62.3984L203.508 61.8367ZM203.259 52.0574L200.02 54.2169L200.068 54.2894L200.12 54.3596L203.259 52.0574ZM196.345 58.5354L200.176 59.2283L200.18 59.2045L200.184 59.1806L196.345 58.5354ZM207.67 73.2856C206.32 74.6352 204.699 75.6988 202.759 76.4682L205.629 83.7059C208.505 82.5651 211.037 80.9296 213.175 78.7911L207.67 73.2856ZM202.737 76.4769C200.796 77.2599 198.923 77.6267 197.093 77.6267V85.4127C199.997 85.4127 202.857 84.8244 205.65 83.6972L202.737 76.4769ZM197.093 77.6267C196.007 77.6267 195.196 77.5782 194.62 77.5034C193.983 77.4207 193.879 77.3354 194.038 77.4148L190.556 84.3788C191.545 84.8735 192.655 85.0996 193.617 85.2246C194.64 85.3574 195.811 85.4127 197.093 85.4127V77.6267ZM188.467 80.1984L186.536 90.7874L194.195 92.1842L196.126 81.5952L188.467 80.1984ZM189.984 87.6115L177.339 88.8573L178.103 96.6058L190.747 95.36L189.984 87.6115ZM181.543 93.4743L190.138 49.2498L182.495 47.7642L173.9 91.9888L181.543 93.4743ZM186.721 52.379L196.874 51.3201L196.066 43.5761L185.913 44.635L186.721 52.379ZM192.644 46.7273L191.834 51.0252L199.486 52.4668L200.296 48.1689L192.644 46.7273ZM199.011 53.7281C200.009 52.0411 201.367 51.2165 203.695 51.2165V43.4305C198.798 43.4305 194.8 45.5542 192.309 49.7639L199.011 53.7281ZM203.695 51.2165C206.859 51.2165 208.765 52.1863 210.036 53.7258L216.041 48.7695C212.993 45.0769 208.67 43.4305 203.695 43.4305V51.2165ZM210.009 53.6926C211.26 55.2429 212.011 57.3202 212.011 60.2172H219.797C219.797 55.8887 218.637 51.9863 216.068 48.8028L210.009 53.6926ZM212.011 60.2172C212.011 63.5055 211.574 66.1155 210.821 68.1441L218.121 70.8521C219.279 67.7315 219.797 64.1543 219.797 60.2172H212.011ZM210.821 68.1441C210.037 70.2593 208.964 71.9599 207.637 73.3181L213.207 78.7585C215.369 76.5456 216.996 73.886 218.121 70.8521L210.821 68.1441ZM190.511 79.7416C192.039 81.052 193.9 81.8 195.972 81.8V74.014C195.884 74.014 195.793 74.0145 195.578 73.83L190.511 79.7416ZM195.972 81.8C197.496 81.8 199.198 81.5146 200.685 80.5233L196.366 74.0449C196.49 73.962 196.556 73.9549 196.497 73.9691C196.434 73.9846 196.269 74.014 195.972 74.014V81.8ZM200.685 80.5233C201.949 79.6807 202.876 78.528 203.556 77.2916L196.734 73.5393C196.5 73.9639 196.348 74.057 196.366 74.0449L200.685 80.5233ZM203.548 77.3061C205.187 74.3556 206.374 69.1423 207.36 62.4004L199.656 61.273C198.65 68.1514 197.594 71.9906 196.742 73.5248L203.548 77.3061ZM207.361 62.3984C207.678 60.2251 207.837 58.0649 207.837 55.9193H200.051C200.051 57.6771 199.921 59.4617 199.656 61.2749L207.361 62.3984ZM207.837 55.9193C207.837 54.8151 207.775 53.7586 207.606 52.81C207.451 51.9334 207.143 50.7709 206.399 49.7553L200.12 54.3596C199.956 54.1355 199.898 53.9739 199.895 53.9636C199.889 53.947 199.911 54.006 199.94 54.1701C200 54.5088 200.051 55.0718 200.051 55.9193H207.837ZM206.498 49.898C205.273 48.0597 203.355 47.2301 201.391 47.2301V55.0161C201.317 55.0161 201.063 55.0005 200.74 54.8387C200.4 54.6688 200.159 54.4255 200.02 54.2169L206.498 49.898ZM201.391 47.2301C198.59 47.2301 196.427 48.7057 195.011 50.7856C193.71 52.6974 192.96 55.1917 192.506 57.8902L200.184 59.1806C200.561 56.9376 201.067 55.7257 201.448 55.1667C201.615 54.9216 201.689 54.904 201.619 54.9449C201.585 54.9648 201.537 54.9863 201.482 55.0009C201.456 55.0077 201.434 55.0117 201.417 55.0139C201.409 55.015 201.402 55.0155 201.398 55.0158C201.393 55.0161 201.391 55.0161 201.391 55.0161V47.2301ZM192.514 57.8424L189.213 76.0928L196.875 77.4787L200.176 59.2283L192.514 57.8424ZM239.153 62.771L235.76 60.8624L234.313 63.4359L236.4 65.5237L239.153 62.771ZM236.413 54.6112L239.7 56.6961L239.719 56.6672L239.736 56.638L236.413 54.6112ZM234.295 60.4663L238.137 61.0946L238.141 61.071L238.144 61.0474L234.295 60.4663ZM231.056 80.2739L231.43 84.1489L234.414 83.8606L234.898 80.9022L231.056 80.2739ZM218.162 81.5197L214.339 80.784L213.356 85.8952L218.537 85.3946L218.162 81.5197ZM224.516 48.507L224.047 44.6423L221.229 44.9839L220.693 47.7713L224.516 48.507ZM234.793 47.2612L238.626 47.9443L239.549 42.7633L234.325 43.3965L234.793 47.2612ZM233.672 53.5523L229.839 52.8693L237.174 55.2516L233.672 53.5523ZM249.119 49.1299L246.412 51.9274L246.434 51.9489L246.457 51.97L249.119 49.1299ZM248.559 61.0892L245.876 58.2685L245.858 58.285L245.841 58.3018L248.559 61.0892ZM242.546 64.6796C244.326 61.5161 245.289 58.1865 245.289 54.7358H237.503C237.503 56.6834 236.971 58.7106 235.76 60.8624L242.546 64.6796ZM245.289 54.7358C245.289 53.4919 245.085 51.8577 244.071 50.4504C242.886 48.8073 241.117 48.1644 239.465 48.1644V55.9504C239.339 55.9504 239.043 55.928 238.676 55.7584C238.288 55.579 237.971 55.3039 237.755 55.0037C237.556 54.7272 237.499 54.5116 237.49 54.4737C237.481 54.4378 237.503 54.5107 237.503 54.7358H245.289ZM239.465 48.1644C237.789 48.1644 236.432 48.8939 235.456 49.7102C234.502 50.5088 233.729 51.5343 233.089 52.5845L239.736 56.638C239.926 56.3269 240.089 56.098 240.22 55.9349C240.353 55.7699 240.433 55.6978 240.452 55.6816C240.472 55.6655 240.399 55.731 240.229 55.8029C240.048 55.8794 239.785 55.9504 239.465 55.9504V48.1644ZM233.125 52.5264C231.727 54.7312 230.85 57.2056 230.445 59.8853L238.144 61.0474C238.404 59.3254 238.939 57.8963 239.7 56.6961L233.125 52.5264ZM230.453 59.8381L227.214 79.6457L234.898 80.9022L238.137 61.0946L230.453 59.8381ZM230.681 76.399L217.788 77.6447L218.537 85.3946L231.43 84.1489L230.681 76.399ZM221.985 82.2554L228.338 49.2427L220.693 47.7713L214.339 80.784L221.985 82.2554ZM224.984 52.3717L235.262 51.126L234.325 43.3965L224.047 44.6423L224.984 52.3717ZM230.96 46.5782L229.839 52.8693L237.505 54.2354L238.626 47.9443L230.96 46.5782ZM237.174 55.2516C237.938 53.6787 238.829 52.7125 239.761 52.1201C240.689 51.5307 241.905 51.1543 243.576 51.1543V43.3682C240.679 43.3682 237.96 44.0403 235.587 45.5479C233.218 47.0526 231.441 49.2319 230.169 51.8531L237.174 55.2516ZM243.576 51.1543C245.331 51.1543 246.072 51.5984 246.412 51.9274L251.827 46.3324C249.592 44.1698 246.638 43.3682 243.576 43.3682V51.1543ZM246.457 51.97C246.721 52.2179 247.22 52.9074 247.22 54.8604H255.006C255.006 51.6643 254.175 48.5334 251.782 46.2898L246.457 51.97ZM247.22 54.8604C247.22 56.4198 246.741 57.4454 245.876 58.2685L251.242 63.9099C253.782 61.4941 255.006 58.3671 255.006 54.8604H247.22ZM245.841 58.3018C245.07 59.054 243.871 59.6254 241.769 59.6254V67.4114C245.398 67.4114 248.726 66.3634 251.276 63.8766L245.841 58.3018ZM241.769 59.6254C241.585 59.6254 241.451 59.6161 241.36 59.6054C241.268 59.5946 241.236 59.5842 241.251 59.5884C241.273 59.5947 241.572 59.6841 241.906 60.0182L236.4 65.5237C238.02 67.1429 240.221 67.4114 241.769 67.4114V59.6254ZM277.366 69.7472L279.555 66.528L276.166 64.2231L274.038 67.7269L277.366 69.7472ZM277.74 76.9727L280.792 79.3891L277.74 76.9727ZM274.625 79.4642L276.409 82.9243L276.411 82.9236L274.625 79.4642ZM259.489 80.5854L258.122 84.2305L258.137 84.236L258.152 84.2414L259.489 80.5854ZM255.316 77.907L258.118 75.2047L258.094 75.1792L258.069 75.1542L255.316 77.907ZM257.122 53.4278L260.029 56.0181L260.032 56.0141L257.122 53.4278ZM280.979 49.7528L283.512 46.797L283.502 46.7881L280.979 49.7528ZM264.223 65.6362V61.7432H260.883L260.376 65.0443L264.223 65.6362ZM265.22 72.6125L262.616 75.5061L262.691 75.5742L262.77 75.6383L265.22 72.6125ZM273.753 72.6125L275.276 76.1953L275.297 76.1863L275.318 76.1771L273.753 72.6125ZM264.659 62.9578L260.829 62.2643L259.998 66.8508H264.659V62.9578ZM271.636 60.2172L268.85 57.4978L268.818 57.5301L268.787 57.5632L271.636 60.2172ZM273.629 51.2477L270.313 53.288L270.407 53.4404L270.514 53.5835L273.629 51.2477ZM270.078 50.874L271.612 54.4522L271.669 54.4279L271.725 54.4017L270.078 50.874ZM268.272 52.618L271.401 54.9337L271.446 54.8733L271.488 54.8111L268.272 52.618ZM275.177 72.9665C275.154 72.951 275.113 72.9183 275.07 72.8671C275.027 72.8159 275.002 72.7699 274.99 72.7441C274.968 72.6964 275.03 72.8009 275.03 73.1731H282.816C282.816 70.6795 281.935 68.1461 279.555 66.528L275.177 72.9665ZM275.03 73.1731C275.03 74.0215 274.825 74.3823 274.687 74.5563L280.792 79.3891C282.232 77.5698 282.816 75.3976 282.816 73.1731H275.03ZM274.687 74.5563C274.287 75.0625 273.704 75.5587 272.84 76.0048L276.411 82.9236C278.121 82.0408 279.615 80.8761 280.792 79.3891L274.687 74.5563ZM272.841 76.0041C270.71 77.1027 268.558 77.6267 266.341 77.6267V85.4127C269.854 85.4127 273.225 84.5663 276.409 82.9243L272.841 76.0041ZM266.341 77.6267C263.699 77.6267 261.926 77.3314 260.827 76.9294L258.152 84.2414C260.458 85.0851 263.253 85.4127 266.341 85.4127V77.6267ZM260.856 76.9402C259.684 76.5006 258.799 75.9106 258.118 75.2047L252.514 80.6093C254.075 82.2288 255.973 83.4244 258.122 84.2305L260.856 76.9402ZM258.069 75.1542C256.795 73.8806 255.908 71.8763 255.908 68.5638H248.122C248.122 73.3072 249.435 77.5316 252.563 80.6597L258.069 75.1542ZM255.908 68.5638C255.908 63.0238 257.394 58.9736 260.029 56.0181L254.216 50.8375C250.04 55.5226 248.122 61.5631 248.122 68.5638H255.908ZM260.032 56.0141C262.83 52.8667 266.702 51.1543 272.134 51.1543V43.3682C264.859 43.3682 258.723 45.7669 254.213 50.8414L260.032 56.0141ZM272.134 51.1543C275.631 51.1543 277.501 51.9053 278.456 52.7174L283.502 46.7881C280.553 44.2782 276.527 43.3682 272.134 43.3682V51.1543ZM278.445 52.7086C278.976 53.1633 279.266 53.6938 279.266 54.6735H287.052C287.052 51.5837 285.888 48.8337 283.512 46.797L278.445 52.7086ZM279.266 54.6735C279.266 56.9422 278.425 58.3971 276.474 59.5264C274.2 60.8431 270.287 61.7432 264.223 61.7432V69.5292C270.783 69.5292 276.338 68.6022 280.375 66.2647C284.737 63.7397 287.052 59.7134 287.052 54.6735H279.266ZM260.376 65.0443C260.185 66.2832 260.081 67.4804 260.081 68.6261H267.867C267.867 67.9446 267.929 67.1486 268.071 66.2282L260.376 65.0443ZM260.081 68.6261C260.081 70.8957 260.539 73.6375 262.616 75.5061L267.824 69.7188C268.042 69.9146 268.051 70.0544 268.001 69.8941C267.946 69.7161 267.867 69.3228 267.867 68.6261H260.081ZM262.77 75.6383C264.569 77.0947 266.782 77.5644 268.895 77.5644V69.7784C267.852 69.7784 267.614 69.5422 267.669 69.5867L262.77 75.6383ZM268.895 77.5644C271.066 77.5644 273.202 77.0767 275.276 76.1953L272.231 69.0296C270.982 69.5602 269.88 69.7784 268.895 69.7784V77.5644ZM275.318 76.1771C277.491 75.2234 279.445 73.8237 280.694 71.7676L274.038 67.7269C273.875 67.9962 273.421 68.5067 272.188 69.0479L275.318 76.1771ZM264.659 66.8508C268.476 66.8508 271.912 65.6314 274.484 62.8711L268.787 57.5632C267.954 58.4572 266.74 59.0648 264.659 59.0648V66.8508ZM274.421 62.9366C276.936 60.361 278.082 57.0705 278.082 53.4278H270.296C270.296 55.3494 269.741 56.5852 268.85 57.4978L274.421 62.9366ZM278.082 53.4278C278.082 52.0536 277.828 50.3583 276.743 48.9119L270.514 53.5835C270.339 53.3502 270.287 53.1678 270.279 53.136C270.272 53.1102 270.296 53.193 270.296 53.4278H278.082ZM276.944 49.2074C275.812 47.3681 273.946 46.5449 272.072 46.5449V54.3309C271.927 54.3309 271.593 54.3016 271.194 54.0943C270.777 53.8773 270.484 53.5663 270.313 53.288L276.944 49.2074ZM272.072 46.5449C270.813 46.5449 269.585 46.8083 268.432 47.3462L271.725 54.4017C271.818 54.3582 271.919 54.3309 272.072 54.3309V46.5449ZM268.545 47.2957C266.942 47.9826 265.822 49.3004 265.055 50.4249L271.488 54.8111C271.695 54.5084 271.834 54.3558 271.895 54.2975C271.922 54.2714 271.916 54.2808 271.875 54.3098C271.833 54.3389 271.746 54.3948 271.612 54.4522L268.545 47.2957ZM265.143 50.3023C263.058 53.1188 261.728 57.2952 260.829 62.2643L268.49 63.6513C269.334 58.9866 270.413 56.2698 271.401 54.9337L265.143 50.3023ZM287.969 78.4053L285.053 80.9847L285.081 81.0156L285.109 81.0458L287.969 78.4053ZM285.851 74.232L282.069 75.1545L282.08 75.1977L282.091 75.2408L285.851 74.232ZM286.661 59.532L290.304 60.9055V60.9055L286.661 59.532ZM290.71 52.9918L293.526 55.6798L293.54 55.6651L293.554 55.6502L290.71 52.9918ZM310.393 48.3201L308.767 51.8576L309.727 52.2985L310.778 52.1941L310.393 48.3201ZM321.044 47.2612L324.869 47.987L325.839 42.8723L320.659 43.3873L321.044 47.2612ZM316.435 71.5536L320.212 72.4978L320.239 72.3892L320.26 72.2793L316.435 71.5536ZM317.058 75.9138L314.205 78.5628L314.254 78.6156L314.305 78.6665L317.058 75.9138ZM319.175 76.9104L322.91 78.0089L324.235 73.5039L319.563 73.0367L319.175 76.9104ZM316.248 80.2739L314.397 76.8492L314.377 76.8599L314.357 76.8708L316.248 80.2739ZM307.154 80.5231L309.085 77.143L309.065 77.1314L309.044 77.12L307.154 80.5231ZM304.974 77.9693L308.695 76.8244L306.224 68.7942L301.695 75.8707L304.974 77.9693ZM301.859 80.5231L303.517 84.0455L301.859 80.5231ZM291.769 80.7722L292.97 77.0691L291.769 80.7722ZM301.112 53.1163L297.873 50.9569L297.83 51.0208L297.79 51.0863L301.112 53.1163ZM299.804 56.1684L303.497 57.3995L303.503 57.3816L303.509 57.3636L299.804 56.1684ZM298.122 63.1447L294.31 62.3544L294.306 62.3723L294.303 62.3903L298.122 63.1447ZM297.686 76.4744L294.245 78.2958L297.686 76.4744ZM302.669 75.6646L299.591 73.2814L299.585 73.2887L299.58 73.296L302.669 75.6646ZM304.725 70.3701L300.894 69.6772L300.889 69.7036L300.885 69.7301L304.725 70.3701ZM308.026 52.1197L311.857 52.8127L312.254 50.6164L310.559 49.1639L308.026 52.1197ZM302.731 51.4968L300.899 48.0618L300.849 48.0886L300.8 48.1168L302.731 51.4968ZM290.885 75.8259C290.408 75.2869 289.946 74.4715 289.611 73.2232L282.091 75.2408C282.67 77.3976 283.62 79.3644 285.053 80.9847L290.885 75.8259ZM289.633 73.3095C289.322 72.0318 289.121 70.1351 289.121 67.5049H281.335C281.335 70.4391 281.55 73.0271 282.069 75.1545L289.633 73.3095ZM289.121 67.5049C289.121 65.1786 289.519 62.9873 290.304 60.9055L283.018 58.1585C281.893 61.1428 281.335 64.2667 281.335 67.5049H289.121ZM290.304 60.9055C291.088 58.8261 292.168 57.1021 293.526 55.6798L287.894 50.3037C285.763 52.5356 284.145 55.1718 283.018 58.1585L290.304 60.9055ZM293.554 55.6502C296.291 52.7217 299.941 51.1543 304.911 51.1543V43.3682C298.088 43.3682 292.271 45.6211 287.866 50.3333L293.554 55.6502ZM304.911 51.1543C306.606 51.1543 307.853 51.4373 308.767 51.8576L312.018 44.7827C309.86 43.7912 307.453 43.3682 304.911 43.3682V51.1543ZM310.778 52.1941L321.429 51.1352L320.659 43.3873L310.008 44.4462L310.778 52.1941ZM317.219 46.5355L312.61 70.8279L320.26 72.2793L324.869 47.987L317.219 46.5355ZM312.658 70.6094C312.419 71.5669 312.355 72.6451 312.355 73.6714H320.141C320.141 73.2981 320.154 73.0112 320.173 72.7989C320.192 72.5787 320.213 72.4909 320.212 72.4978L312.658 70.6094ZM312.355 73.6714C312.355 75.408 312.895 77.1523 314.205 78.5628L319.91 73.2648C319.997 73.3582 320.069 73.4774 320.112 73.5949C320.151 73.7035 320.141 73.7437 320.141 73.6714H312.355ZM314.305 78.6665C315.532 79.8938 317.078 80.6131 318.788 80.7841L319.563 73.0367C319.557 73.0361 319.606 73.0414 319.681 73.0765C319.756 73.1119 319.8 73.1511 319.81 73.161L314.305 78.6665ZM315.441 75.8119C315.372 76.0447 315.204 76.413 314.397 76.8492L318.099 83.6986C320.365 82.4738 322.148 80.5997 322.91 78.0089L315.441 75.8119ZM314.357 76.8708C313.438 77.3815 312.49 77.6267 311.452 77.6267V85.4127C313.819 85.4127 316.068 84.8273 318.139 83.677L314.357 76.8708ZM311.452 77.6267C310.246 77.6267 309.521 77.3918 309.085 77.143L305.222 83.9032C307.112 84.9831 309.252 85.4127 311.452 85.4127V77.6267ZM309.044 77.12C308.831 77.0017 308.75 76.9146 308.729 76.8899C308.714 76.8723 308.706 76.8611 308.695 76.8244L301.253 79.1141C301.921 81.2867 303.392 82.8866 305.263 83.9262L309.044 77.12ZM301.695 75.8707C301.519 76.146 301.125 76.5662 300.202 77.0006L303.517 84.0455C305.418 83.1512 307.1 81.8688 308.253 80.0678L301.695 75.8707ZM300.202 77.0006C299.411 77.3726 298.339 77.6267 296.876 77.6267V85.4127C299.234 85.4127 301.484 85.0024 303.517 84.0455L300.202 77.0006ZM296.876 77.6267C295.353 77.6267 294.063 77.4236 292.97 77.0691L290.568 84.4753C292.547 85.1174 294.662 85.4127 296.876 85.4127V77.6267ZM292.97 77.0691C292.004 76.7558 291.329 76.3061 290.83 75.7647L285.109 81.0458C286.602 82.6638 288.461 83.792 290.568 84.4753L292.97 77.0691ZM297.79 51.0863C297.111 52.1971 296.563 53.5334 296.099 54.9733L303.509 57.3636C303.875 56.2289 304.199 55.5304 304.434 55.1463L297.79 51.0863ZM296.111 54.9374C295.613 56.4289 295.013 58.9658 294.31 62.3544L301.934 63.935C302.643 60.5135 303.164 58.3995 303.497 57.3995L296.111 54.9374ZM294.303 62.3903C293.608 65.9072 293.232 69.0596 293.232 71.8027H301.018C301.018 69.7289 301.307 67.1093 301.941 63.8991L294.303 62.3903ZM293.232 71.8027C293.232 73.0894 293.281 74.25 293.4 75.2408C293.507 76.1268 293.71 77.2845 294.245 78.2958L301.127 74.6529C301.232 74.8526 301.245 74.9515 301.22 74.8493C301.199 74.7644 301.165 74.5939 301.131 74.3132C301.063 73.7468 301.018 72.9246 301.018 71.8027H293.232ZM294.245 78.2958C295.13 79.9671 296.818 81.4263 299.243 81.4263V73.6402C299.644 73.6402 300.12 73.7604 300.545 74.0493C300.934 74.3139 301.095 74.5939 301.127 74.6529L294.245 78.2958ZM299.243 81.4263C302.01 81.4263 304.217 80.0439 305.759 78.0332L299.58 73.296C299.366 73.5749 299.238 73.6453 299.232 73.6484C299.228 73.6504 299.237 73.6455 299.253 73.6416C299.269 73.6377 299.268 73.6402 299.243 73.6402V81.4263ZM305.747 78.0478C307.263 76.0897 308.125 73.6496 308.565 71.0101L300.885 69.7301C300.577 71.5754 300.068 72.6649 299.591 73.2814L305.747 78.0478ZM308.555 71.0631L311.857 52.8127L304.195 51.4268L300.894 69.6772L308.555 71.0631ZM310.559 49.1639C309.062 47.8806 307.229 47.1055 305.161 47.1055V54.8915C305.2 54.8915 305.217 54.8964 305.237 54.9042C305.262 54.9141 305.348 54.9522 305.492 55.0755L310.559 49.1639ZM305.161 47.1055C303.773 47.1055 302.27 47.3307 300.899 48.0618L304.563 54.9318C304.494 54.9687 304.489 54.9571 304.588 54.9367C304.689 54.9159 304.873 54.8915 305.161 54.8915V47.1055ZM300.8 48.1168C299.546 48.8333 298.597 49.8704 297.873 50.9569L304.351 55.2758C304.623 54.8673 304.754 54.8248 304.663 54.8769L300.8 48.1168ZM347.767 47.7596L346.698 51.5028L350.568 52.6085L351.544 48.7037L347.767 47.7596ZM347.954 46.8252L351.784 47.5216L351.791 47.4834L351.797 47.4451L347.954 46.8252ZM348.265 44.8943L344.448 44.1308L344.434 44.2024L344.422 44.2744L348.265 44.8943ZM348.888 41.593L345.073 40.8203L345.065 40.8584L345.058 40.8966L348.888 41.593ZM349.885 36.6723L349.496 32.7988L346.639 33.0859L346.069 35.8995L349.885 36.6723ZM362.28 35.4265L366.104 36.1583L367.085 31.031L361.891 31.553L362.28 35.4265ZM355.366 71.5536L351.543 70.8218L351.534 70.8676L351.526 70.9136L355.366 71.5536ZM355.989 75.976L352.721 78.0909L352.75 78.1367L352.781 78.1816L355.989 75.976ZM357.796 76.9727L361.378 78.497L363.683 73.0797H357.796V76.9727ZM352.75 81.146L353.82 84.8892L353.892 84.8686L353.963 84.8452L352.75 81.146ZM346.085 80.5231L348.07 77.174L348.023 77.1463L347.976 77.12L346.085 80.5231ZM343.905 77.9693L347.626 76.8244L345.097 68.6047L340.59 75.929L343.905 77.9693ZM340.915 80.5231L339.263 76.9981L339.218 77.019L339.174 77.0411L340.915 80.5231ZM330.7 80.7722L329.528 84.4845L329.542 84.4889L329.555 84.4931L330.7 80.7722ZM326.838 78.4053L323.891 80.9483L323.933 80.9978L323.978 81.0458L326.838 78.4053ZM329.579 52.9918L332.378 55.698L332.385 55.6904L332.392 55.6827L329.579 52.9918ZM339.794 53.4901L343.276 55.2311L339.794 53.4901ZM337.24 62.1481L333.432 61.3403L333.428 61.3587L333.425 61.3772L337.24 62.1481ZM341.601 75.6646L338.439 73.3925L338.416 73.4256L338.393 73.4591L341.601 75.6646ZM343.594 70.3701L339.765 69.6645L339.76 69.6914L339.756 69.7184L343.594 70.3701ZM346.957 52.1197L350.786 52.8253L351.192 50.622L349.491 49.1639L346.957 52.1197ZM343.781 51.1543C344.996 51.1543 345.953 51.2901 346.698 51.5028L348.837 44.0163C347.255 43.5646 345.556 43.3682 343.781 43.3682V51.1543ZM351.544 48.7037C351.62 48.3974 351.703 47.9671 351.784 47.5216L344.124 46.1288C344.085 46.344 344.053 46.5121 344.028 46.6379C344 46.7748 343.989 46.8227 343.99 46.8154L351.544 48.7037ZM351.797 47.4451L352.109 45.5142L344.422 44.2744L344.111 46.2053L351.797 47.4451ZM352.083 45.6578C352.255 44.7954 352.468 43.6699 352.719 42.2894L345.058 40.8966C344.811 42.2568 344.608 43.3322 344.448 44.1308L352.083 45.6578ZM352.704 42.3658L353.7 37.445L346.069 35.8995L345.073 40.8203L352.704 42.3658ZM350.274 40.5458L362.67 39.3L361.891 31.553L349.496 32.7988L350.274 40.5458ZM358.457 34.6948L351.543 70.8218L359.19 72.2854L366.104 36.1583L358.457 34.6948ZM351.526 70.9136C351.434 71.4652 351.411 72.0383 351.411 72.5502H359.197C359.197 72.4047 359.201 72.3009 359.205 72.2324C359.209 72.1604 359.213 72.153 359.206 72.1936L351.526 70.9136ZM351.411 72.5502V73.5468H359.197V72.5502H351.411ZM351.411 73.5468C351.411 75.1432 351.821 76.7005 352.721 78.0909L359.258 73.8612C359.244 73.8397 359.197 73.7776 359.197 73.5468H351.411ZM352.781 78.1816C353.897 79.8043 355.652 80.8657 357.796 80.8657V73.0797C358.021 73.0797 358.34 73.136 358.664 73.3149C358.977 73.4876 359.142 73.6897 359.197 73.7705L352.781 78.1816ZM354.213 75.4483C353.931 76.1125 353.299 76.8691 351.537 77.4467L353.963 84.8452C357.267 83.7618 359.999 81.7362 361.378 78.497L354.213 75.4483ZM351.681 77.4027C351.259 77.5233 350.582 77.6267 349.573 77.6267V85.4127C351.056 85.4127 352.497 85.2669 353.82 84.8892L351.681 77.4027ZM349.573 77.6267C349.125 77.6267 348.641 77.5126 348.07 77.174L344.101 83.8722C345.772 84.8624 347.614 85.4127 349.573 85.4127V77.6267ZM347.976 77.12C347.763 77.0017 347.681 76.9146 347.66 76.8899C347.645 76.8723 347.637 76.8611 347.626 76.8244L340.184 79.1141C340.853 81.2867 342.324 82.8866 344.195 83.9262L347.976 77.12ZM340.59 75.929C340.383 76.2651 340.016 76.6454 339.263 76.9981L342.568 84.048C344.473 83.155 346.099 81.8327 347.221 80.0096L340.59 75.929ZM339.174 77.0411C338.528 77.3641 337.524 77.6267 335.995 77.6267V85.4127C338.369 85.4127 340.645 85.0109 342.656 84.0051L339.174 77.0411ZM335.995 77.6267C334.424 77.6267 333.05 77.4221 331.845 77.0514L329.555 84.4931C331.59 85.119 333.745 85.4127 335.995 85.4127V77.6267ZM331.872 77.0599C330.858 76.7395 330.18 76.2858 329.699 75.7647L323.978 81.0458C325.49 82.6841 327.387 83.8083 329.528 84.4845L331.872 77.0599ZM329.786 75.8622C328.877 74.8084 327.991 72.5019 327.991 68.0032H320.205C320.205 73.1383 321.146 77.7666 323.891 80.9483L329.786 75.8622ZM327.991 68.0032C327.991 62.5846 329.553 58.619 332.378 55.698L326.78 50.2855C322.297 54.9222 320.205 60.9641 320.205 68.0032H327.991ZM332.392 55.6827C335.235 52.7109 338.912 51.1543 343.781 51.1543V43.3682C337.022 43.3682 331.232 45.6319 326.766 50.3008L332.392 55.6827ZM343.345 47.1055C341.829 47.1055 340.357 47.5302 339.068 48.4348C337.819 49.3118 336.936 50.5008 336.312 51.7491L343.276 55.2311C343.483 54.8183 343.607 54.7615 343.541 54.8081C343.507 54.8321 343.454 54.8595 343.395 54.8776C343.338 54.8949 343.315 54.8915 343.345 54.8915V47.1055ZM336.312 51.7491C335.24 53.8928 334.309 57.2079 333.432 61.3403L341.049 62.9559C341.916 58.8662 342.687 56.4093 343.276 55.2311L336.312 51.7491ZM333.425 61.3772C332.549 65.7087 332.102 69.8717 332.102 73.8583H339.888C339.888 70.4533 340.27 66.8096 341.056 62.919L333.425 61.3772ZM332.102 73.8583C332.102 75.3803 332.304 77.1634 333.203 78.6866C334.291 80.5302 336.14 81.5508 338.237 81.5508V73.7648C338.425 73.7648 338.779 73.8093 339.171 74.0307C339.566 74.2538 339.798 74.5425 339.908 74.7293C340.003 74.8911 339.988 74.9405 339.955 74.7691C339.922 74.6038 339.888 74.3116 339.888 73.8583H332.102ZM338.237 81.5508C341.131 81.5508 343.345 79.9986 344.809 77.8701L338.393 73.4591C338.182 73.7658 338.063 73.8261 338.09 73.8104C338.103 73.8024 338.134 73.7872 338.176 73.776C338.217 73.7648 338.241 73.7648 338.237 73.7648V81.5508ZM344.762 77.9367C346.165 75.9841 346.993 73.6057 347.432 71.0219L339.756 69.7184C339.447 71.5362 338.946 72.6875 338.439 73.3925L344.762 77.9367ZM347.422 71.0757L350.786 52.8253L343.129 51.4141L339.765 69.6645L347.422 71.0757ZM349.491 49.1639C347.705 47.6333 345.494 47.1055 343.345 47.1055V54.8915C343.804 54.8915 344.089 54.9481 344.246 54.9969C344.323 55.0207 344.368 55.0423 344.391 55.0547C344.413 55.0667 344.422 55.074 344.424 55.0755L349.491 49.1639Z" fill="white" mask="url(#path-1-outside-1_16_97)"/>
</g>
<g filter="url(#filter1_d_16_97)">
<path d="M80.8316 6.72877C99.3233 8.18859 81.0681 28.3554 95.9086 39.2844C111.251 50.583 147.219 -10.5375 155.276 6.72877C162.089 21.3275 98.613 46.6573 102.234 65.1238C107.1 89.9416 143.297 96.9986 124.141 114.273C104.441 132.038 107.24 81.4971 80.8316 84.0056C62.0977 85.7851 25.9449 133.32 11.2442 121.572C-3.15364 110.066 67.1969 78.2627 56.5003 65.1238C44.6194 50.5303 -11.1705 38.3307 11.2442 15.0014C23.4006 2.34903 50.3945 50.583 65.737 39.2844C80.5776 28.3554 62.4582 5.2783 80.8316 6.72877Z" fill="#F6ED23"/>
<path d="M96.5016 38.4792C89.863 33.5903 90.2854 26.7956 90.6876 20.3256C90.7045 20.0551 90.7212 19.7851 90.7375 19.5158C90.9326 16.2782 91.0572 12.9979 89.798 10.4513C88.4627 7.75104 85.7295 6.11232 80.9103 5.73187C78.5294 5.54392 76.6336 5.74279 75.1471 6.33367C73.6293 6.937 72.5907 7.92919 71.9231 9.20242C71.2719 10.4444 70.9969 11.9082 70.8965 13.4453C70.7958 14.9855 70.8665 16.6821 70.9609 18.4186C70.9749 18.6749 70.9892 18.9321 71.0036 19.1903C71.3882 26.0824 71.8061 33.573 65.144 38.4792C61.8 40.9417 57.7269 40.2847 52.9485 37.6053C48.1837 34.9335 43.0756 30.4402 37.9606 25.8882C37.7886 25.7352 37.6167 25.5821 37.4447 25.4289C32.5555 21.0762 27.6621 16.7197 23.2267 14.179C20.9258 12.8611 18.6517 11.9728 16.4911 11.8766C14.2768 11.7781 12.2451 12.5164 10.5231 14.3086C7.63934 17.31 5.94047 20.2071 5.29144 23.0306C4.63791 25.8737 5.06959 28.5538 6.28932 31.0604C8.69044 35.9949 14.1648 40.2907 20.4865 44.1897C24.8663 46.891 29.7777 49.4724 34.5364 51.9735C36.6713 53.0956 38.7755 54.2015 40.7872 55.2949C47.3673 58.8712 52.8994 62.2847 55.7248 65.7552C56.7672 67.0355 56.8874 68.5562 56.1096 70.4739C55.3115 72.4416 53.6062 74.6948 51.1997 77.172C46.5188 81.9903 39.4936 87.3524 32.4277 92.7455C32.2443 92.8855 32.0609 93.0255 31.8775 93.1655C24.6774 98.662 17.4851 104.185 13.0084 109.07C10.7802 111.501 9.11559 113.888 8.52663 116.128C8.22653 117.27 8.19701 118.406 8.54499 119.492C8.89368 120.58 9.59508 121.534 10.6199 122.353C14.789 125.685 20.3222 124.665 26.1265 121.806C31.9874 118.919 38.5487 113.956 45.1524 108.641C47.014 107.143 48.8792 105.616 50.7368 104.096C55.5071 100.192 60.2276 96.3295 64.7085 93.0885C67.815 90.8416 70.776 88.9166 73.5236 87.5016C76.2796 86.0824 78.7637 85.2065 80.9261 85.0011C87.1441 84.4105 91.6304 86.9146 95.2316 90.8499C98.833 94.7855 101.493 100.091 104.013 105.118L104.108 105.309C105.37 107.826 106.603 110.272 107.892 112.366C109.177 114.452 110.566 116.271 112.175 117.484C113.819 118.723 115.704 119.333 117.878 118.955C120.002 118.587 122.281 117.297 124.811 115.016C129.735 110.575 131.346 106.553 130.46 102.578C129.61 98.7684 126.501 95.3001 122.891 91.8084C121.873 90.824 120.809 89.8319 119.724 88.8196C116.872 86.1608 113.871 83.3623 111.164 80.1945C107.45 75.8482 104.387 70.9073 103.215 64.9314C102.823 62.9312 103.321 60.7592 104.628 58.3954C105.937 56.0282 108.016 53.5454 110.65 50.9781C115.922 45.8408 123.238 40.5316 130.535 35.288C130.829 35.0771 131.122 34.8663 131.416 34.6556C138.376 29.6562 145.247 24.7209 150.044 20.138C152.542 17.7512 154.544 15.3994 155.697 13.1238C156.858 10.8295 157.207 8.50098 156.182 6.30589C155.626 5.11361 154.915 4.18614 154.029 3.55753C153.133 2.92213 152.12 2.63571 151.043 2.63375C148.951 2.62995 146.616 3.69894 144.208 5.28513C139.49 8.39311 133.856 13.9304 128.093 19.5943C127.936 19.7479 127.78 19.9016 127.623 20.0554C121.646 25.9283 115.527 31.8997 109.959 35.7109C107.176 37.6164 104.603 38.9298 102.314 39.4457C100.057 39.9545 98.1324 39.6801 96.5016 38.4792Z" stroke="#FFFFE3" stroke-width="2"/>
</g>
<defs>
<filter id="filter0_d_16_97" x="139.829" y="35.4265" width="226.345" height="65.091" filterUnits="userSpaceOnUse" color-interpolation-filters="sRGB">
<feFlood flood-opacity="0" result="BackgroundImageFix"/>
<feColorMatrix in="SourceAlpha" type="matrix" values="0 0 0 0 0 0 0 0 0 0 0 0 0 0 0 0 0 0 127 0" result="hardAlpha"/>
<feOffset dy="3.893"/>
<feGaussianBlur stdDeviation="1.9465"/>
<feComposite in2="hardAlpha" operator="out"/>
<feColorMatrix type="matrix" values="0 0 0 0 0 0 0 0 0 0 0 0 0 0 0 0 0 0 0.25 0"/>
<feBlend mode="normal" in2="BackgroundImageFix" result="effect1_dropShadow_16_97"/>
<feBlend mode="normal" in="SourceGraphic" in2="effect1_dropShadow_16_97" result="shape"/>
</filter>
<filter id="filter1_d_16_97" x="0.0945446" y="0.660492" width="163.534" height="133.538" filterUnits="userSpaceOnUse" color-interpolation-filters="sRGB">
<feFlood flood-opacity="0" result="BackgroundImageFix"/>
<feColorMatrix in="SourceAlpha" type="matrix" values="0 0 0 0 0 0 0 0 0 0 0 0 0 0 0 0 0 0 127 0" result="hardAlpha"/>
<feOffset dx="0.973251" dy="3.893"/>
<feGaussianBlur stdDeviation="2.43313"/>
<feComposite in2="hardAlpha" operator="out"/>
<feColorMatrix type="matrix" values="0 0 0 0 0 0 0 0 0 0 0 0 0 0 0 0 0 0 0.25 0"/>
<feBlend mode="normal" in2="BackgroundImageFix" result="effect1_dropShadow_16_97"/>
<feBlend mode="normal" in="SourceGraphic" in2="effect1_dropShadow_16_97" result="shape"/>
</filter>
</defs>
</svg>
