<svg width="228" height="66" viewBox="0 0 228 66" fill="none" xmlns="http://www.w3.org/2000/svg">
<g filter="url(#filter0_d_16_98)">
<mask id="path-1-outside-1_16_98" maskUnits="userSpaceOnUse" x="0.597046" y="-4.72607" width="228" height="67" fill="black">
<rect fill="white" x="0.597046" y="-4.72607" width="228" height="67"/>
<path d="M29.9483 16.4968C30.5712 15.2511 30.8826 14.0468 30.8826 12.8841C30.8826 11.7214 30.8203 10.8286 30.6957 10.2057C30.5712 9.54134 30.3635 8.95998 30.0729 8.46168C29.45 7.38202 28.5157 6.84219 27.2699 6.84219C25.7335 6.84219 24.3424 7.40278 23.0966 8.52396C21.7678 9.68667 21.1034 11.1816 21.1034 13.0087C21.1034 14.1714 21.4979 15.2096 22.2869 16.1231C23.1174 16.9951 24.1555 17.8464 25.4013 18.6769C26.647 19.5074 27.9758 20.3379 29.3877 21.1684C30.7996 21.999 32.1284 22.9125 33.3741 23.9091C36.2394 26.193 37.672 28.8714 37.672 31.9443C37.672 34.0205 37.1114 35.9515 35.9902 37.7371C34.9106 39.4811 33.4572 40.9968 31.6301 42.2841C27.6436 45.1078 23.0136 46.5197 17.7398 46.5197C13.4627 46.5197 10.2237 45.8345 8.02289 44.4642C5.82204 43.0523 4.72162 41.2875 4.72162 39.1697C4.72162 35.3909 6.19577 33.0239 9.14408 32.0689C9.97458 31.7782 11.0127 31.6328 12.2585 31.6328C13.5458 31.6328 14.9161 31.9028 16.3695 32.4426C15.7051 34.1451 15.3729 35.7646 15.3729 37.3011C15.3729 40.6231 16.5564 42.2841 18.9233 42.2841C20.4597 42.2841 21.8508 41.7235 23.0966 40.6023C24.3839 39.4811 25.0275 38.2977 25.0275 37.0519C25.0275 35.7646 24.6123 34.6642 23.7818 33.7506C22.9928 32.8371 21.9962 32.0273 20.7919 31.3214C19.5877 30.5739 18.2797 29.8472 16.8678 29.1413C15.4975 28.4354 14.2102 27.5841 13.0059 26.5875C10.1822 24.3036 8.77035 21.3345 8.77035 17.6803C8.77035 15.3134 9.3517 13.2163 10.5144 11.3892C11.6771 9.52057 13.1928 7.96337 15.0614 6.71761C18.7987 4.18456 22.9513 2.91804 27.5191 2.91804C32.1284 2.91804 35.5335 3.60321 37.7343 4.97355C39.9767 6.34388 41.0979 8.19176 41.0979 10.5172C41.0979 12.5519 40.3089 14.2129 38.7309 15.5002C37.3606 16.5799 35.8449 17.1197 34.1839 17.1197C32.5229 17.1197 31.111 16.9121 29.9483 16.4968ZM71.4224 41.0383C69.6783 42.7824 67.6021 44.132 65.1936 45.0871C62.8267 46.0421 60.4597 46.5197 58.0928 46.5197C55.7258 46.5197 54.1271 46.3121 53.2966 45.8968L51.3657 56.4858L38.7212 57.7315L47.3169 13.507L57.4699 12.4481L56.6601 16.746C58.4042 13.7977 61.0826 12.3235 64.6953 12.3235C68.7648 12.3235 71.8792 13.6316 74.0385 16.2477C75.9487 18.6146 76.9038 21.6045 76.9038 25.2172C76.9038 28.8299 76.4262 31.9235 75.4711 34.4981C74.5161 37.0727 73.1665 39.2527 71.4224 41.0383ZM54.044 41.7858C54.9161 42.5333 55.8919 42.907 56.9716 42.907C58.0512 42.907 58.9025 42.6994 59.5254 42.2841C60.1483 41.8688 60.6881 41.246 61.1449 40.4155C62.3906 38.1731 63.5118 33.6468 64.5084 26.8367C64.7991 24.8434 64.9445 22.871 64.9445 20.9193C64.9445 18.9676 64.7161 17.6803 64.2593 17.0574C63.844 16.4345 63.2211 16.1231 62.3906 16.1231C59.8576 16.1231 58.1758 18.5939 57.3453 23.5354L54.044 41.7858ZM100.153 27.771C101.648 25.1134 102.396 22.435 102.396 19.7358C102.396 17.9502 101.752 17.0574 100.465 17.0574C99.4681 17.0574 98.4507 17.9087 97.4126 19.6112C96.3329 21.3138 95.627 23.2655 95.2948 25.4663L92.0558 45.2739L79.1622 46.5197L85.5156 13.507L95.7931 12.2612L94.6719 18.5523C96.7067 14.3583 100.008 12.2612 104.576 12.2612C106.984 12.2612 108.832 12.8841 110.119 14.1299C111.448 15.3757 112.113 17.2858 112.113 19.8604C112.113 22.3934 111.261 24.4697 109.559 26.0892C107.898 27.7087 105.635 28.5184 102.769 28.5184C101.524 28.5184 100.652 28.2693 100.153 27.771ZM138.366 34.7472C139.404 35.4532 139.923 36.5951 139.923 38.1731C139.923 39.7095 139.529 40.976 138.74 41.9727C137.951 42.9693 136.913 43.7998 135.625 44.4642C132.968 45.8345 130.206 46.5197 127.341 46.5197C124.476 46.5197 122.192 46.2082 120.489 45.5854C118.828 44.9625 117.437 44.0697 116.316 42.907C114.115 40.7061 113.015 37.5917 113.015 33.5638C113.015 27.2934 114.717 22.2481 118.122 18.4278C121.777 14.3168 126.78 12.2612 133.134 12.2612C137.079 12.2612 140.027 13.0918 141.979 14.7528C143.432 15.9985 144.159 17.6388 144.159 19.6735C144.159 26.982 137.847 30.6362 125.223 30.6362C125.057 31.7159 124.974 32.7125 124.974 33.6261C124.974 35.5362 125.389 36.865 126.22 37.6125C127.092 38.3184 128.317 38.6714 129.895 38.6714C131.473 38.6714 133.092 38.3184 134.753 37.6125C136.456 36.865 137.66 35.91 138.366 34.7472ZM125.659 27.9578C128.608 27.9578 130.933 27.0443 132.636 25.2172C134.338 23.4731 135.189 21.21 135.189 18.4278C135.189 17.4727 135.002 16.746 134.629 16.2477C134.297 15.7079 133.777 15.4379 133.072 15.4379C132.366 15.4379 131.701 15.5833 131.078 15.874C130.497 16.1231 129.895 16.7045 129.272 17.618C127.736 19.6943 126.531 23.1409 125.659 27.9578ZM148.969 43.4053C148.014 42.3256 147.308 40.9345 146.851 39.232C146.436 37.5294 146.228 35.2871 146.228 32.5049C146.228 29.7227 146.706 27.065 147.661 24.532C148.616 21.999 149.966 19.8189 151.71 17.9918C155.281 14.1714 160.015 12.2612 165.911 12.2612C168.029 12.2612 169.856 12.6142 171.393 13.3201L182.044 12.2612L177.435 36.5536C177.31 37.0519 177.248 37.7578 177.248 38.6714C177.248 39.5849 177.518 40.3324 178.058 40.9138C178.639 41.4951 179.345 41.8273 180.175 41.9104C179.76 43.3222 178.784 44.4434 177.248 45.2739C175.753 46.1044 174.154 46.5197 172.452 46.5197C170.749 46.5197 169.317 46.1875 168.154 45.5231C167.033 44.9002 166.306 44.0489 165.974 42.9693C165.309 44.0074 164.271 44.8587 162.859 45.5231C161.447 46.1875 159.786 46.5197 157.876 46.5197C156.008 46.5197 154.305 46.2705 152.769 45.7722C151.232 45.2739 149.966 44.4849 148.969 43.4053ZM162.112 18.1163C161.655 18.8638 161.219 19.8812 160.804 21.1684C160.389 22.4142 159.828 24.7396 159.122 28.1447C158.458 31.5083 158.125 34.3943 158.125 36.8027C158.125 39.2112 158.312 40.7684 158.686 41.4744C159.06 42.1803 159.579 42.5333 160.243 42.5333C161.572 42.5333 162.714 41.9104 163.669 40.6646C164.666 39.3773 165.351 37.6125 165.725 35.3701L169.026 17.1197C168.154 16.3723 167.199 15.9985 166.161 15.9985C165.164 15.9985 164.354 16.1646 163.731 16.4968C163.15 16.829 162.61 17.3689 162.112 18.1163ZM204.781 12.2612C206.276 12.2612 207.604 12.4274 208.767 12.7596C208.809 12.5935 208.871 12.282 208.954 11.8252L209.265 9.8943C209.432 9.0638 209.639 7.96337 209.888 6.59303L210.885 1.67228L223.28 0.426516L216.366 36.5536C216.325 36.8027 216.304 37.135 216.304 37.5502V38.5468C216.304 39.4604 216.532 40.2701 216.989 40.976C217.446 41.6405 218.048 41.9727 218.795 41.9727C217.965 43.9244 216.283 45.3155 213.75 46.146C212.878 46.3951 211.819 46.5197 210.573 46.5197C209.369 46.5197 208.207 46.1875 207.085 45.5231C205.964 44.9002 205.237 44.0489 204.905 42.9693C204.241 44.0489 203.244 44.9002 201.915 45.5231C200.587 46.1875 198.946 46.5197 196.995 46.5197C195.085 46.5197 193.32 46.2705 191.7 45.7722C190.122 45.2739 188.835 44.4849 187.838 43.4053C186.011 41.2875 185.098 37.8201 185.098 33.0032C185.098 26.7744 186.925 21.7706 190.579 17.9918C194.233 14.1714 198.967 12.2612 204.781 12.2612ZM204.345 15.9985C202.808 15.9985 201.625 16.829 200.794 18.4901C199.964 20.1511 199.112 23.0371 198.24 27.1481C197.41 31.2591 196.995 35.1625 196.995 38.8583C196.995 41.3913 197.742 42.6578 199.237 42.6578C200.566 42.6578 201.687 41.9934 202.601 40.6646C203.556 39.3358 204.22 37.571 204.594 35.3701L207.957 17.1197C207.085 16.3723 205.881 15.9985 204.345 15.9985Z"/>
</mask>
<path d="M29.9483 16.4968C30.5712 15.2511 30.8826 14.0468 30.8826 12.8841C30.8826 11.7214 30.8203 10.8286 30.6957 10.2057C30.5712 9.54134 30.3635 8.95998 30.0729 8.46168C29.45 7.38202 28.5157 6.84219 27.2699 6.84219C25.7335 6.84219 24.3424 7.40278 23.0966 8.52396C21.7678 9.68667 21.1034 11.1816 21.1034 13.0087C21.1034 14.1714 21.4979 15.2096 22.2869 16.1231C23.1174 16.9951 24.1555 17.8464 25.4013 18.6769C26.647 19.5074 27.9758 20.3379 29.3877 21.1684C30.7996 21.999 32.1284 22.9125 33.3741 23.9091C36.2394 26.193 37.672 28.8714 37.672 31.9443C37.672 34.0205 37.1114 35.9515 35.9902 37.7371C34.9106 39.4811 33.4572 40.9968 31.6301 42.2841C27.6436 45.1078 23.0136 46.5197 17.7398 46.5197C13.4627 46.5197 10.2237 45.8345 8.02289 44.4642C5.82204 43.0523 4.72162 41.2875 4.72162 39.1697C4.72162 35.3909 6.19577 33.0239 9.14408 32.0689C9.97458 31.7782 11.0127 31.6328 12.2585 31.6328C13.5458 31.6328 14.9161 31.9028 16.3695 32.4426C15.7051 34.1451 15.3729 35.7646 15.3729 37.3011C15.3729 40.6231 16.5564 42.2841 18.9233 42.2841C20.4597 42.2841 21.8508 41.7235 23.0966 40.6023C24.3839 39.4811 25.0275 38.2977 25.0275 37.0519C25.0275 35.7646 24.6123 34.6642 23.7818 33.7506C22.9928 32.8371 21.9962 32.0273 20.7919 31.3214C19.5877 30.5739 18.2797 29.8472 16.8678 29.1413C15.4975 28.4354 14.2102 27.5841 13.0059 26.5875C10.1822 24.3036 8.77035 21.3345 8.77035 17.6803C8.77035 15.3134 9.3517 13.2163 10.5144 11.3892C11.6771 9.52057 13.1928 7.96337 15.0614 6.71761C18.7987 4.18456 22.9513 2.91804 27.5191 2.91804C32.1284 2.91804 35.5335 3.60321 37.7343 4.97355C39.9767 6.34388 41.0979 8.19176 41.0979 10.5172C41.0979 12.5519 40.3089 14.2129 38.7309 15.5002C37.3606 16.5799 35.8449 17.1197 34.1839 17.1197C32.5229 17.1197 31.111 16.9121 29.9483 16.4968ZM71.4224 41.0383C69.6783 42.7824 67.6021 44.132 65.1936 45.0871C62.8267 46.0421 60.4597 46.5197 58.0928 46.5197C55.7258 46.5197 54.1271 46.3121 53.2966 45.8968L51.3657 56.4858L38.7212 57.7315L47.3169 13.507L57.4699 12.4481L56.6601 16.746C58.4042 13.7977 61.0826 12.3235 64.6953 12.3235C68.7648 12.3235 71.8792 13.6316 74.0385 16.2477C75.9487 18.6146 76.9038 21.6045 76.9038 25.2172C76.9038 28.8299 76.4262 31.9235 75.4711 34.4981C74.5161 37.0727 73.1665 39.2527 71.4224 41.0383ZM54.044 41.7858C54.9161 42.5333 55.8919 42.907 56.9716 42.907C58.0512 42.907 58.9025 42.6994 59.5254 42.2841C60.1483 41.8688 60.6881 41.246 61.1449 40.4155C62.3906 38.1731 63.5118 33.6468 64.5084 26.8367C64.7991 24.8434 64.9445 22.871 64.9445 20.9193C64.9445 18.9676 64.7161 17.6803 64.2593 17.0574C63.844 16.4345 63.2211 16.1231 62.3906 16.1231C59.8576 16.1231 58.1758 18.5939 57.3453 23.5354L54.044 41.7858ZM100.153 27.771C101.648 25.1134 102.396 22.435 102.396 19.7358C102.396 17.9502 101.752 17.0574 100.465 17.0574C99.4681 17.0574 98.4507 17.9087 97.4126 19.6112C96.3329 21.3138 95.627 23.2655 95.2948 25.4663L92.0558 45.2739L79.1622 46.5197L85.5156 13.507L95.7931 12.2612L94.6719 18.5523C96.7067 14.3583 100.008 12.2612 104.576 12.2612C106.984 12.2612 108.832 12.8841 110.119 14.1299C111.448 15.3757 112.113 17.2858 112.113 19.8604C112.113 22.3934 111.261 24.4697 109.559 26.0892C107.898 27.7087 105.635 28.5184 102.769 28.5184C101.524 28.5184 100.652 28.2693 100.153 27.771ZM138.366 34.7472C139.404 35.4532 139.923 36.5951 139.923 38.1731C139.923 39.7095 139.529 40.976 138.74 41.9727C137.951 42.9693 136.913 43.7998 135.625 44.4642C132.968 45.8345 130.206 46.5197 127.341 46.5197C124.476 46.5197 122.192 46.2082 120.489 45.5854C118.828 44.9625 117.437 44.0697 116.316 42.907C114.115 40.7061 113.015 37.5917 113.015 33.5638C113.015 27.2934 114.717 22.2481 118.122 18.4278C121.777 14.3168 126.78 12.2612 133.134 12.2612C137.079 12.2612 140.027 13.0918 141.979 14.7528C143.432 15.9985 144.159 17.6388 144.159 19.6735C144.159 26.982 137.847 30.6362 125.223 30.6362C125.057 31.7159 124.974 32.7125 124.974 33.6261C124.974 35.5362 125.389 36.865 126.22 37.6125C127.092 38.3184 128.317 38.6714 129.895 38.6714C131.473 38.6714 133.092 38.3184 134.753 37.6125C136.456 36.865 137.66 35.91 138.366 34.7472ZM125.659 27.9578C128.608 27.9578 130.933 27.0443 132.636 25.2172C134.338 23.4731 135.189 21.21 135.189 18.4278C135.189 17.4727 135.002 16.746 134.629 16.2477C134.297 15.7079 133.777 15.4379 133.072 15.4379C132.366 15.4379 131.701 15.5833 131.078 15.874C130.497 16.1231 129.895 16.7045 129.272 17.618C127.736 19.6943 126.531 23.1409 125.659 27.9578ZM148.969 43.4053C148.014 42.3256 147.308 40.9345 146.851 39.232C146.436 37.5294 146.228 35.2871 146.228 32.5049C146.228 29.7227 146.706 27.065 147.661 24.532C148.616 21.999 149.966 19.8189 151.71 17.9918C155.281 14.1714 160.015 12.2612 165.911 12.2612C168.029 12.2612 169.856 12.6142 171.393 13.3201L182.044 12.2612L177.435 36.5536C177.31 37.0519 177.248 37.7578 177.248 38.6714C177.248 39.5849 177.518 40.3324 178.058 40.9138C178.639 41.4951 179.345 41.8273 180.175 41.9104C179.76 43.3222 178.784 44.4434 177.248 45.2739C175.753 46.1044 174.154 46.5197 172.452 46.5197C170.749 46.5197 169.317 46.1875 168.154 45.5231C167.033 44.9002 166.306 44.0489 165.974 42.9693C165.309 44.0074 164.271 44.8587 162.859 45.5231C161.447 46.1875 159.786 46.5197 157.876 46.5197C156.008 46.5197 154.305 46.2705 152.769 45.7722C151.232 45.2739 149.966 44.4849 148.969 43.4053ZM162.112 18.1163C161.655 18.8638 161.219 19.8812 160.804 21.1684C160.389 22.4142 159.828 24.7396 159.122 28.1447C158.458 31.5083 158.125 34.3943 158.125 36.8027C158.125 39.2112 158.312 40.7684 158.686 41.4744C159.06 42.1803 159.579 42.5333 160.243 42.5333C161.572 42.5333 162.714 41.9104 163.669 40.6646C164.666 39.3773 165.351 37.6125 165.725 35.3701L169.026 17.1197C168.154 16.3723 167.199 15.9985 166.161 15.9985C165.164 15.9985 164.354 16.1646 163.731 16.4968C163.15 16.829 162.61 17.3689 162.112 18.1163ZM204.781 12.2612C206.276 12.2612 207.604 12.4274 208.767 12.7596C208.809 12.5935 208.871 12.282 208.954 11.8252L209.265 9.8943C209.432 9.0638 209.639 7.96337 209.888 6.59303L210.885 1.67228L223.28 0.426516L216.366 36.5536C216.325 36.8027 216.304 37.135 216.304 37.5502V38.5468C216.304 39.4604 216.532 40.2701 216.989 40.976C217.446 41.6405 218.048 41.9727 218.795 41.9727C217.965 43.9244 216.283 45.3155 213.75 46.146C212.878 46.3951 211.819 46.5197 210.573 46.5197C209.369 46.5197 208.207 46.1875 207.085 45.5231C205.964 44.9002 205.237 44.0489 204.905 42.9693C204.241 44.0489 203.244 44.9002 201.915 45.5231C200.587 46.1875 198.946 46.5197 196.995 46.5197C195.085 46.5197 193.32 46.2705 191.7 45.7722C190.122 45.2739 188.835 44.4849 187.838 43.4053C186.011 41.2875 185.098 37.8201 185.098 33.0032C185.098 26.7744 186.925 21.7706 190.579 17.9918C194.233 14.1714 198.967 12.2612 204.781 12.2612ZM204.345 15.9985C202.808 15.9985 201.625 16.829 200.794 18.4901C199.964 20.1511 199.112 23.0371 198.24 27.1481C197.41 31.2591 196.995 35.1625 196.995 38.8583C196.995 41.3913 197.742 42.6578 199.237 42.6578C200.566 42.6578 201.687 41.9934 202.601 40.6646C203.556 39.3358 204.22 37.571 204.594 35.3701L207.957 17.1197C207.085 16.3723 205.881 15.9985 204.345 15.9985Z" fill="#F6ED23"/>
<path d="M29.9483 16.4968L26.4663 14.7558L24.5015 18.6854L28.6389 20.163L29.9483 16.4968ZM30.6957 10.2057L26.8694 10.9232L26.8737 10.9462L26.8783 10.9692L30.6957 10.2057ZM30.0729 8.46168L26.7008 10.4071L26.7055 10.4152L26.7102 10.4233L30.0729 8.46168ZM23.0966 8.52396L25.6602 11.4537L25.6807 11.4358L25.7009 11.4176L23.0966 8.52396ZM22.2869 16.1231L19.3405 18.6677L19.4025 18.7393L19.4678 18.8079L22.2869 16.1231ZM29.3877 21.1684L31.3615 17.8129L31.3615 17.8129L29.3877 21.1684ZM33.3741 23.9091L30.9422 26.949L30.9476 26.9533L33.3741 23.9091ZM35.9902 37.7371L32.6933 35.6669L32.6867 35.6774L32.6801 35.688L35.9902 37.7371ZM31.6301 42.2841L29.3879 39.1016L29.3798 39.1073L31.6301 42.2841ZM8.02289 44.4642L5.92084 47.7409L5.94293 47.7551L5.96521 47.7689L8.02289 44.4642ZM9.14408 32.0689L10.3438 35.7724L10.3871 35.7583L10.4301 35.7433L9.14408 32.0689ZM16.3695 32.4426L19.9961 33.8579L21.4348 30.1711L17.725 28.7932L16.3695 32.4426ZM23.0966 40.6023L20.5398 37.6667L20.5159 37.6875L20.4923 37.7087L23.0966 40.6023ZM23.7818 33.7506L20.8355 36.2952L20.8678 36.3327L20.9012 36.3694L23.7818 33.7506ZM20.7919 31.3214L18.7389 34.6291L18.7807 34.655L18.8232 34.6799L20.7919 31.3214ZM16.8678 29.1413L15.085 32.6021L15.1058 32.6128L15.1268 32.6233L16.8678 29.1413ZM13.0059 26.5875L15.488 23.5884L15.4711 23.5744L15.4541 23.5606L13.0059 26.5875ZM10.5144 11.3892L13.7988 13.4793L13.8094 13.4626L13.8198 13.4459L10.5144 11.3892ZM15.0614 6.71761L17.2209 9.95679L17.2333 9.94852L17.2456 9.94017L15.0614 6.71761ZM37.7343 4.97355L35.6766 8.27831L35.6904 8.2869L35.7043 8.29538L37.7343 4.97355ZM38.7309 15.5002L41.1402 18.5582L41.1662 18.5377L41.1918 18.5168L38.7309 15.5002ZM33.4303 18.2378C34.2705 16.5574 34.7756 14.7594 34.7756 12.8841H26.9896C26.9896 13.3342 26.8718 13.9447 26.4663 14.7558L33.4303 18.2378ZM34.7756 12.8841C34.7756 11.6387 34.7134 10.4433 34.5132 9.44226L26.8783 10.9692C26.9273 11.214 26.9896 11.8041 26.9896 12.8841H34.7756ZM34.5221 9.4883C34.3291 8.45936 33.9858 7.44333 33.4356 6.5001L26.7102 10.4233C26.7413 10.4766 26.8132 10.6233 26.8694 10.9232L34.5221 9.4883ZM33.4449 6.51626C32.1273 4.23232 29.9079 2.94918 27.2699 2.94918V10.7352C27.316 10.7352 27.1685 10.7399 26.9574 10.6179C26.7463 10.4959 26.6772 10.3662 26.7008 10.4071L33.4449 6.51626ZM27.2699 2.94918C24.6811 2.94918 22.3826 3.92911 20.4923 5.63032L25.7009 11.4176C26.3022 10.8764 26.7859 10.7352 27.2699 10.7352V2.94918ZM20.533 5.59418C18.3264 7.525 17.2104 10.1036 17.2104 13.0087H24.9964C24.9964 12.2596 25.2092 11.8484 25.6602 11.4537L20.533 5.59418ZM17.2104 13.0087C17.2104 15.1439 17.9663 17.0765 19.3405 18.6677L25.2332 13.5786C25.0294 13.3426 24.9964 13.1989 24.9964 13.0087H17.2104ZM19.4678 18.8079C20.5381 19.9318 21.8117 20.9627 23.2418 21.9161L27.5607 15.4377C26.4993 14.7302 25.6966 14.0585 25.1059 13.4383L19.4678 18.8079ZM23.2418 21.9161C24.5537 22.7907 25.9448 23.6598 27.4139 24.524L31.3615 17.8129C30.0068 17.0161 28.7404 16.2242 27.5607 15.4377L23.2418 21.9161ZM27.4139 24.524C28.67 25.2628 29.8452 26.0715 30.9422 26.949L35.8061 20.8692C34.4115 19.7535 32.9292 18.7351 31.3615 17.8129L27.4139 24.524ZM30.9476 26.9533C33.0848 28.6569 33.779 30.2891 33.779 31.9443H41.565C41.565 27.4537 39.394 23.7291 35.8007 20.8649L30.9476 26.9533ZM33.779 31.9443C33.779 33.2763 33.4314 34.4914 32.6933 35.6669L39.2872 39.8072C40.7914 37.4116 41.565 34.7648 41.565 31.9443H33.779ZM32.6801 35.688C31.9004 36.9476 30.8251 38.0891 29.3879 39.1016L33.8723 45.4666C36.0893 43.9045 37.9208 42.0147 39.3003 39.7862L32.6801 35.688ZM29.3798 39.1073C26.1043 41.4275 22.275 42.6267 17.7398 42.6267V50.4127C23.7521 50.4127 29.183 48.7882 33.8803 45.4609L29.3798 39.1073ZM17.7398 42.6267C13.7663 42.6267 11.3827 41.9702 10.0806 41.1594L5.96521 47.7689C9.06475 49.6988 13.1591 50.4127 17.7398 50.4127V42.6267ZM10.1249 41.1875C8.73987 40.2989 8.61463 39.6403 8.61463 39.1697H0.828618C0.828618 42.9346 2.90422 45.8057 5.92084 47.7409L10.1249 41.1875ZM8.61463 39.1697C8.61463 37.7577 8.89298 37.0018 9.13175 36.6185C9.32847 36.3026 9.63939 36.0006 10.3438 35.7724L7.94434 28.3653C5.70046 29.0922 3.80015 30.4512 2.52272 32.5023C1.28734 34.4859 0.828618 36.8029 0.828618 39.1697H8.61463ZM10.4301 35.7433C10.7145 35.6438 11.2835 35.5258 12.2585 35.5258V27.7398C10.742 27.7398 9.23466 27.9126 7.85802 28.3944L10.4301 35.7433ZM12.2585 35.5258C12.9993 35.5258 13.9082 35.6813 15.014 36.092L17.725 28.7932C15.924 28.1243 14.0923 27.7398 12.2585 27.7398V35.5258ZM12.7429 31.0273C11.935 33.0973 11.4799 35.1981 11.4799 37.3011H19.2659C19.2659 36.3311 19.4751 35.1929 19.9961 33.8579L12.7429 31.0273ZM11.4799 37.3011C11.4799 39.3065 11.8159 41.5092 13.0899 43.2973C14.537 45.3284 16.7127 46.1771 18.9233 46.1771V38.3911C18.7852 38.3911 18.8511 38.3676 19.0197 38.4465C19.2087 38.5349 19.3541 38.6713 19.431 38.7793C19.4907 38.8631 19.4429 38.8361 19.3824 38.5816C19.3216 38.3255 19.2659 37.9129 19.2659 37.3011H11.4799ZM18.9233 46.1771C21.5121 46.1771 23.8107 45.1972 25.7009 43.496L20.4923 37.7087C19.891 38.2498 19.4073 38.3911 18.9233 38.3911V46.1771ZM25.6535 43.538C27.4608 41.9638 28.9205 39.7963 28.9205 37.0519H21.1345C21.1345 36.9728 21.1622 36.9452 21.1249 37.0139C21.0747 37.1061 20.9233 37.3326 20.5398 37.6667L25.6535 43.538ZM28.9205 37.0519C28.9205 34.8415 28.1742 32.795 26.6624 31.1319L20.9012 36.3694C21.0503 36.5334 21.1345 36.6877 21.1345 37.0519H28.9205ZM26.7281 31.2061C25.6203 29.9234 24.2767 28.8516 22.7607 27.9629L18.8232 34.6799C19.7156 35.203 20.3653 35.7508 20.8355 36.2952L26.7281 31.2061ZM22.845 28.0137C21.5288 27.1968 20.1155 26.4127 18.6088 25.6593L15.1268 32.6233C16.4438 33.2818 17.6466 33.951 18.7389 34.6291L22.845 28.0137ZM18.6506 25.6805C17.5328 25.1047 16.4795 24.4089 15.488 23.5884L10.5239 29.5867C11.9409 30.7593 13.4621 31.7661 15.085 32.6021L18.6506 25.6805ZM15.4541 23.5606C13.5508 22.0212 12.6634 20.1677 12.6634 17.6803H4.87734C4.87734 22.5014 6.81362 26.586 10.5577 29.6144L15.4541 23.5606ZM12.6634 17.6803C12.6634 15.9823 13.0703 14.6241 13.7988 13.4793L7.23003 9.29916C5.63314 11.8086 4.87734 14.6444 4.87734 17.6803H12.6634ZM13.8198 13.4459C14.6831 12.0584 15.8045 10.9011 17.2209 9.95679L12.902 3.47843C10.5811 5.02566 8.67115 6.98271 7.20903 9.33253L13.8198 13.4459ZM17.2456 9.94017C20.3303 7.84946 23.7202 6.81104 27.5191 6.81104V-0.974964C22.1823 -0.974964 17.2672 0.519665 12.8773 3.49506L17.2456 9.94017ZM27.5191 6.81104C31.892 6.81104 34.4078 7.4883 35.6766 8.27831L39.792 1.66879C36.6591 -0.281885 32.3647 -0.974964 27.5191 -0.974964V6.81104ZM35.7043 8.29538C36.9686 9.068 37.2048 9.74546 37.2048 10.5172H44.9909C44.9909 6.63807 42.9847 3.61976 39.7643 1.65172L35.7043 8.29538ZM37.2048 10.5172C37.2048 11.3812 36.9426 11.935 36.27 12.4837L41.1918 18.5168C43.6751 16.4909 44.9909 13.7227 44.9909 10.5172H37.2048ZM36.3216 12.4423C35.6007 13.0103 34.9247 13.2267 34.1839 13.2267V21.0127C36.7651 21.0127 39.1204 20.1495 41.1402 18.5582L36.3216 12.4423ZM34.1839 13.2267C32.8249 13.2267 31.8829 13.054 31.2576 12.8306L28.6389 20.163C30.3391 20.7702 32.2208 21.0127 34.1839 21.0127V13.2267ZM71.4224 41.0383L74.1752 43.7911L74.1914 43.7749L74.2074 43.7585L71.4224 41.0383ZM65.1936 45.0871L63.7585 41.4682L63.7477 41.4725L63.7369 41.4769L65.1936 45.0871ZM53.2966 45.8968L55.0376 42.4148L50.3974 40.0947L49.4667 45.1984L53.2966 45.8968ZM51.3657 56.4858L51.7474 60.36L54.6689 60.0722L55.1955 57.1842L51.3657 56.4858ZM38.7212 57.7315L34.8997 56.9888L33.9027 62.1181L39.1029 61.6058L38.7212 57.7315ZM47.3169 13.507L46.9131 9.63501L44.0455 9.93408L43.4954 12.7642L47.3169 13.507ZM57.4699 12.4481L61.2956 13.1689L62.263 8.0341L57.0661 8.57611L57.4699 12.4481ZM56.6601 16.746L52.8344 16.0252L60.0108 18.7281L56.6601 16.746ZM74.0385 16.2477L77.068 13.8028L77.0546 13.7861L77.0409 13.7695L74.0385 16.2477ZM75.4711 34.4981L79.1211 35.8521L75.4711 34.4981ZM54.044 41.7858L50.2132 41.0928L49.8159 43.2891L51.5105 44.7416L54.044 41.7858ZM59.5254 42.2841L61.6848 45.5233H61.6848L59.5254 42.2841ZM61.1449 40.4155L57.7418 38.5248L57.7378 38.5321L57.7338 38.5393L61.1449 40.4155ZM64.5084 26.8367L68.3604 27.4004L68.3607 27.3984L64.5084 26.8367ZM64.2593 17.0574L61.0201 19.2169L61.0684 19.2894L61.1199 19.3596L64.2593 17.0574ZM57.3453 23.5354L61.1761 24.2283L61.1805 24.2045L61.1845 24.1806L57.3453 23.5354ZM68.6696 38.2856C67.32 39.6352 65.6987 40.6988 63.7585 41.4682L66.6287 48.7059C69.5055 47.5651 72.0367 45.9296 74.1752 43.7911L68.6696 38.2856ZM63.7369 41.4769C61.7963 42.2599 59.9225 42.6267 58.0928 42.6267V50.4127C60.9969 50.4127 63.857 49.8244 66.6503 48.6972L63.7369 41.4769ZM58.0928 42.6267C57.0071 42.6267 56.1957 42.5782 55.6199 42.5034C54.9832 42.4207 54.8788 42.3354 55.0376 42.4148L51.5556 49.3788C52.5449 49.8735 53.6551 50.0996 54.6171 50.2246C55.64 50.3574 56.8115 50.4127 58.0928 50.4127V42.6267ZM49.4667 45.1984L47.5358 55.7874L55.1955 57.1842L57.1264 46.5952L49.4667 45.1984ZM50.984 52.6115L38.3395 53.8573L39.1029 61.6058L51.7474 60.36L50.984 52.6115ZM42.5427 58.4743L51.1384 14.2498L43.4954 12.7642L34.8997 56.9888L42.5427 58.4743ZM47.7208 17.379L57.8737 16.3201L57.0661 8.57611L46.9131 9.63501L47.7208 17.379ZM53.6442 11.7273L52.8344 16.0252L60.4858 17.4668L61.2956 13.1689L53.6442 11.7273ZM60.0108 18.7281C61.0087 17.0411 62.3669 16.2165 64.6953 16.2165V8.43053C59.7983 8.43053 55.7997 10.5542 53.3095 14.7639L60.0108 18.7281ZM64.6953 16.2165C67.8594 16.2165 69.7654 17.1863 71.0361 18.7258L77.0409 13.7695C73.993 10.0769 69.6702 8.43053 64.6953 8.43053V16.2165ZM71.009 18.6926C72.2602 20.2429 73.0108 22.3202 73.0108 25.2172H80.7968C80.7968 20.8887 79.6372 16.9863 77.068 13.8028L71.009 18.6926ZM73.0108 25.2172C73.0108 28.5055 72.5737 31.1155 71.8212 33.1441L79.1211 35.8521C80.2787 32.7315 80.7968 29.1543 80.7968 25.2172H73.0108ZM71.8212 33.1441C71.0365 35.2593 69.9641 36.9599 68.6375 38.3181L74.2074 43.7585C76.3689 41.5456 77.9956 38.886 79.1211 35.8521L71.8212 33.1441ZM51.5105 44.7416C53.0393 46.052 54.9003 46.8 56.9716 46.8V39.014C56.8835 39.014 56.7928 39.0145 56.5776 38.83L51.5105 44.7416ZM56.9716 46.8C58.4961 46.8 60.1978 46.5146 61.6848 45.5233L57.3659 39.0449C57.4903 38.962 57.5558 38.9549 57.4973 38.9691C57.4338 38.9846 57.2693 39.014 56.9716 39.014V46.8ZM61.6848 45.5233C62.9487 44.6807 63.8759 43.528 64.556 42.2916L57.7338 38.5393C57.5003 38.9639 57.3479 39.057 57.3659 39.0449L61.6848 45.5233ZM64.548 42.3061C66.1871 39.3556 67.3738 34.1423 68.3604 27.4004L60.6565 26.273C59.6499 33.1514 58.5942 36.9906 57.7418 38.5248L64.548 42.3061ZM68.3607 27.3984C68.6776 25.2251 68.8375 23.0649 68.8375 20.9193H61.0514C61.0514 22.6771 60.9206 24.4617 60.6562 26.2749L68.3607 27.3984ZM68.8375 20.9193C68.8375 19.8151 68.7746 18.7586 68.6063 17.81C68.4508 16.9334 68.1434 15.7709 67.3986 14.7553L61.1199 19.3596C60.9556 19.1355 60.8983 18.9739 60.8946 18.9636C60.8887 18.947 60.9109 19.006 60.94 19.1701C61.0001 19.5088 61.0514 20.0718 61.0514 20.9193H68.8375ZM67.4985 14.898C66.2729 13.0597 64.3552 12.2301 62.3906 12.2301V20.0161C62.3169 20.0161 62.0633 20.0005 61.7397 19.8387C61.3999 19.6688 61.1592 19.4255 61.0201 19.2169L67.4985 14.898ZM62.3906 12.2301C59.5902 12.2301 57.4271 13.7057 56.0113 15.7856C54.71 17.6974 53.9597 20.1917 53.5061 22.8902L61.1845 24.1806C61.5614 21.9376 62.0672 20.7257 62.4477 20.1667C62.6146 19.9216 62.6889 19.904 62.6192 19.9449C62.5852 19.9648 62.5372 19.9863 62.4822 20.0009C62.4565 20.0077 62.4343 20.0117 62.4172 20.0139C62.4088 20.015 62.4022 20.0155 62.3976 20.0158C62.393 20.0161 62.3906 20.0161 62.3906 20.0161V12.2301ZM53.5145 22.8424L50.2132 41.0928L57.8749 42.4787L61.1761 24.2283L53.5145 22.8424ZM100.153 27.771L96.7602 25.8624L95.3126 28.4359L97.4005 30.5237L100.153 27.771ZM97.4126 19.6112L100.7 21.6961L100.719 21.6672L100.736 21.638L97.4126 19.6112ZM95.2948 25.4663L99.1368 26.0946L99.1406 26.071L99.1442 26.0474L95.2948 25.4663ZM92.0558 45.2739L92.4302 49.1489L95.414 48.8606L95.8978 45.9022L92.0558 45.2739ZM79.1622 46.5197L75.3393 45.784L74.3557 50.8952L79.5366 50.3946L79.1622 46.5197ZM85.5156 13.507L85.0471 9.64229L82.2292 9.98386L81.6927 12.7713L85.5156 13.507ZM95.7931 12.2612L99.6257 12.9443L100.549 7.76327L95.3247 8.39653L95.7931 12.2612ZM94.6719 18.5523L90.8393 17.8693L98.1745 20.2516L94.6719 18.5523ZM110.119 14.1299L107.412 16.9274L107.434 16.9489L107.457 16.97L110.119 14.1299ZM109.559 26.0892L106.876 23.2685L106.858 23.285L106.841 23.3018L109.559 26.0892ZM103.546 29.6796C105.326 26.5161 106.289 23.1865 106.289 19.7358H98.5026C98.5026 21.6834 97.9706 23.7106 96.7602 25.8624L103.546 29.6796ZM106.289 19.7358C106.289 18.4919 106.085 16.8577 105.071 15.4504C103.886 13.8073 102.117 13.1644 100.465 13.1644V20.9504C100.339 20.9504 100.043 20.928 99.6757 20.7584C99.2878 20.579 98.9714 20.3039 98.755 20.0037C98.5557 19.7272 98.4988 19.5116 98.4897 19.4737C98.4811 19.4378 98.5026 19.5107 98.5026 19.7358H106.289ZM100.465 13.1644C98.7887 13.1644 97.4316 13.8939 96.456 14.7102C95.5015 15.5088 94.7291 16.5343 94.0888 17.5845L100.736 21.638C100.926 21.3269 101.089 21.098 101.22 20.9349C101.353 20.7699 101.433 20.6978 101.452 20.6816C101.472 20.6655 101.399 20.731 101.229 20.8029C101.048 20.8794 100.785 20.9504 100.465 20.9504V13.1644ZM94.1249 17.5264C92.7267 19.7312 91.8499 22.2056 91.4454 24.8853L99.1442 26.0474C99.4041 24.3254 99.9392 22.8963 100.7 21.6961L94.1249 17.5264ZM91.4528 24.8381L88.2138 44.6457L95.8978 45.9022L99.1368 26.0946L91.4528 24.8381ZM91.6814 41.399L78.7878 42.6447L79.5366 50.3946L92.4302 49.1489L91.6814 41.399ZM82.985 47.2554L89.3384 14.2427L81.6927 12.7713L75.3393 45.784L82.985 47.2554ZM85.984 17.3717L96.2616 16.126L95.3247 8.39653L85.0471 9.64229L85.984 17.3717ZM91.9605 11.5782L90.8393 17.8693L98.5045 19.2354L99.6257 12.9443L91.9605 11.5782ZM98.1745 20.2516C98.9376 18.6787 99.8287 17.7125 100.761 17.1201C101.689 16.5307 102.905 16.1543 104.576 16.1543V8.36824C101.679 8.36824 98.96 9.04028 96.5865 10.5479C94.2179 12.0526 92.441 14.2319 91.1693 16.8531L98.1745 20.2516ZM104.576 16.1543C106.331 16.1543 107.072 16.5984 107.412 16.9274L112.827 11.3324C110.592 9.16981 107.638 8.36824 104.576 8.36824V16.1543ZM107.457 16.97C107.721 17.2179 108.22 17.9074 108.22 19.8604H116.006C116.006 16.6643 115.175 13.5334 112.782 11.2898L107.457 16.97ZM108.22 19.8604C108.22 21.4198 107.741 22.4454 106.876 23.2685L112.242 28.9099C114.782 26.4941 116.006 23.3671 116.006 19.8604H108.22ZM106.841 23.3018C106.07 24.054 104.871 24.6254 102.769 24.6254V32.4114C106.398 32.4114 109.726 31.3634 112.276 28.8766L106.841 23.3018ZM102.769 24.6254C102.585 24.6254 102.451 24.6161 102.36 24.6054C102.268 24.5946 102.236 24.5842 102.251 24.5884C102.273 24.5947 102.572 24.6841 102.906 25.0182L97.4005 30.5237C99.0197 32.1429 101.221 32.4114 102.769 32.4114V24.6254ZM138.366 34.7472L140.555 31.528L137.166 29.2231L135.038 32.7269L138.366 34.7472ZM138.74 41.9727L141.792 44.3891L138.74 41.9727ZM135.625 44.4642L137.409 47.9243L137.411 47.9236L135.625 44.4642ZM120.489 45.5854L119.122 49.2305L119.137 49.236L119.152 49.2414L120.489 45.5854ZM116.316 42.907L119.118 40.2047L119.094 40.1792L119.069 40.1542L116.316 42.907ZM118.122 18.4278L121.029 21.0181L121.032 21.0141L118.122 18.4278ZM141.979 14.7528L144.512 11.797L144.502 11.7881L141.979 14.7528ZM125.223 30.6362V26.7432H121.883L121.376 30.0443L125.223 30.6362ZM126.22 37.6125L123.616 40.5061L123.691 40.5742L123.77 40.6383L126.22 37.6125ZM134.753 37.6125L136.276 41.1953L136.297 41.1863L136.318 41.1771L134.753 37.6125ZM125.659 27.9578L121.829 27.2643L120.998 31.8508H125.659V27.9578ZM132.636 25.2172L129.85 22.4978L129.818 22.5301L129.787 22.5632L132.636 25.2172ZM134.629 16.2477L131.313 18.288L131.407 18.4404L131.514 18.5835L134.629 16.2477ZM131.078 15.874L132.612 19.4522L132.669 19.4279L132.725 19.4017L131.078 15.874ZM129.272 17.618L132.401 19.9337L132.446 19.8733L132.488 19.8111L129.272 17.618ZM136.177 37.9665C136.154 37.951 136.113 37.9183 136.07 37.8671C136.027 37.8159 136.002 37.7699 135.99 37.7441C135.968 37.6964 136.03 37.8009 136.03 38.1731H143.816C143.816 35.6795 142.935 33.1461 140.555 31.528L136.177 37.9665ZM136.03 38.1731C136.03 39.0215 135.825 39.3823 135.687 39.5563L141.792 44.3891C143.232 42.5698 143.816 40.3976 143.816 38.1731H136.03ZM135.687 39.5563C135.287 40.0625 134.704 40.5587 133.84 41.0048L137.411 47.9236C139.121 47.0408 140.615 45.8761 141.792 44.3891L135.687 39.5563ZM133.841 41.0041C131.71 42.1027 129.558 42.6267 127.341 42.6267V50.4127C130.854 50.4127 134.225 49.5663 137.409 47.9243L133.841 41.0041ZM127.341 42.6267C124.699 42.6267 122.926 42.3314 121.827 41.9294L119.152 49.2414C121.458 50.0851 124.253 50.4127 127.341 50.4127V42.6267ZM121.856 41.9402C120.684 41.5006 119.799 40.9106 119.118 40.2047L113.514 45.6093C115.075 47.2288 116.973 48.4244 119.122 49.2305L121.856 41.9402ZM119.069 40.1542C117.795 38.8806 116.908 36.8763 116.908 33.5638H109.122C109.122 38.3072 110.435 42.5316 113.563 45.6597L119.069 40.1542ZM116.908 33.5638C116.908 28.0238 118.394 23.9736 121.029 21.0181L115.216 15.8375C111.04 20.5226 109.122 26.5631 109.122 33.5638H116.908ZM121.032 21.0141C123.83 17.8667 127.702 16.1543 133.134 16.1543V8.36824C125.859 8.36824 119.723 10.7669 115.213 15.8414L121.032 21.0141ZM133.134 16.1543C136.631 16.1543 138.501 16.9053 139.456 17.7174L144.502 11.7881C141.553 9.27819 137.527 8.36824 133.134 8.36824V16.1543ZM139.445 17.7086C139.976 18.1633 140.266 18.6938 140.266 19.6735H148.052C148.052 16.5837 146.888 13.8337 144.512 11.797L139.445 17.7086ZM140.266 19.6735C140.266 21.9422 139.425 23.3971 137.474 24.5264C135.2 25.8431 131.287 26.7432 125.223 26.7432V34.5292C131.783 34.5292 137.338 33.6022 141.375 31.2647C145.737 28.7397 148.052 24.7134 148.052 19.6735H140.266ZM121.376 30.0443C121.185 31.2832 121.081 32.4804 121.081 33.6261H128.867C128.867 32.9446 128.929 32.1486 129.071 31.2282L121.376 30.0443ZM121.081 33.6261C121.081 35.8957 121.539 38.6375 123.616 40.5061L128.824 34.7188C129.042 34.9146 129.051 35.0544 129.001 34.8941C128.946 34.7161 128.867 34.3228 128.867 33.6261H121.081ZM123.77 40.6383C125.569 42.0947 127.782 42.5644 129.895 42.5644V34.7784C128.852 34.7784 128.614 34.5422 128.669 34.5867L123.77 40.6383ZM129.895 42.5644C132.066 42.5644 134.202 42.0767 136.276 41.1953L133.231 34.0296C131.982 34.5602 130.88 34.7784 129.895 34.7784V42.5644ZM136.318 41.1771C138.491 40.2234 140.445 38.8237 141.694 36.7676L135.038 32.7269C134.875 32.9962 134.421 33.5067 133.188 34.0479L136.318 41.1771ZM125.659 31.8508C129.476 31.8508 132.912 30.6314 135.484 27.8711L129.787 22.5632C128.954 23.4572 127.74 24.0648 125.659 24.0648V31.8508ZM135.421 27.9366C137.936 25.361 139.082 22.0705 139.082 18.4278H131.296C131.296 20.3494 130.741 21.5852 129.85 22.4978L135.421 27.9366ZM139.082 18.4278C139.082 17.0536 138.828 15.3583 137.743 13.9119L131.514 18.5835C131.339 18.3502 131.287 18.1678 131.279 18.136C131.272 18.1102 131.296 18.193 131.296 18.4278H139.082ZM137.944 14.2074C136.812 12.3681 134.946 11.5449 133.072 11.5449V19.3309C132.927 19.3309 132.593 19.3016 132.194 19.0943C131.777 18.8773 131.484 18.5663 131.313 18.288L137.944 14.2074ZM133.072 11.5449C131.813 11.5449 130.585 11.8083 129.432 12.3462L132.725 19.4017C132.818 19.3582 132.919 19.3309 133.072 19.3309V11.5449ZM129.545 12.2957C127.942 12.9826 126.822 14.3004 126.055 15.4249L132.488 19.8111C132.695 19.5084 132.834 19.3558 132.895 19.2975C132.922 19.2714 132.916 19.2808 132.875 19.3098C132.833 19.3389 132.746 19.3948 132.612 19.4522L129.545 12.2957ZM126.143 15.3023C124.058 18.1188 122.728 22.2952 121.829 27.2643L129.49 28.6513C130.334 23.9866 131.413 21.2698 132.401 19.9337L126.143 15.3023ZM148.969 43.4053L146.053 45.9847L146.081 46.0156L146.109 46.0458L148.969 43.4053ZM146.851 39.232L143.069 40.1545L143.08 40.1977L143.091 40.2408L146.851 39.232ZM147.661 24.532L151.304 25.9055V25.9055L147.661 24.532ZM151.71 17.9918L154.526 20.6798L154.54 20.6651L154.554 20.6502L151.71 17.9918ZM171.393 13.3201L169.767 16.8576L170.727 17.2985L171.778 17.1941L171.393 13.3201ZM182.044 12.2612L185.869 12.987L186.839 7.87233L181.659 8.38734L182.044 12.2612ZM177.435 36.5536L181.212 37.4978L181.239 37.3892L181.26 37.2793L177.435 36.5536ZM178.058 40.9138L175.205 43.5628L175.254 43.6156L175.305 43.6665L178.058 40.9138ZM180.175 41.9104L183.91 43.0089L185.235 38.5039L180.563 38.0367L180.175 41.9104ZM177.248 45.2739L175.397 41.8492L175.377 41.8599L175.357 41.8708L177.248 45.2739ZM168.154 45.5231L170.085 42.143L170.065 42.1314L170.044 42.12L168.154 45.5231ZM165.974 42.9693L169.695 41.8244L167.224 33.7942L162.695 40.8707L165.974 42.9693ZM162.859 45.5231L164.517 49.0455L162.859 45.5231ZM152.769 45.7722L153.97 42.0691L152.769 45.7722ZM162.112 18.1163L158.873 15.9569L158.83 16.0208L158.79 16.0863L162.112 18.1163ZM160.804 21.1684L164.497 22.3995L164.503 22.3816L164.509 22.3636L160.804 21.1684ZM159.122 28.1447L155.31 27.3544L155.306 27.3723L155.303 27.3903L159.122 28.1447ZM158.686 41.4744L155.245 43.2958L158.686 41.4744ZM163.669 40.6646L160.591 38.2814L160.585 38.2887L160.58 38.296L163.669 40.6646ZM165.725 35.3701L161.894 34.6772L161.889 34.7036L161.885 34.7301L165.725 35.3701ZM169.026 17.1197L172.857 17.8127L173.254 15.6164L171.559 14.1639L169.026 17.1197ZM163.731 16.4968L161.899 13.0618L161.849 13.0886L161.8 13.1168L163.731 16.4968ZM151.885 40.8259C151.408 40.2869 150.946 39.4715 150.611 38.2232L143.091 40.2408C143.67 42.3976 144.62 44.3644 146.053 45.9847L151.885 40.8259ZM150.633 38.3095C150.322 37.0318 150.121 35.1351 150.121 32.5049H142.335C142.335 35.4391 142.55 38.0271 143.069 40.1545L150.633 38.3095ZM150.121 32.5049C150.121 30.1786 150.519 27.9873 151.304 25.9055L144.018 23.1585C142.893 26.1428 142.335 29.2667 142.335 32.5049H150.121ZM151.304 25.9055C152.088 23.8261 153.168 22.1021 154.526 20.6798L148.894 15.3037C146.763 17.5356 145.145 20.1718 144.018 23.1585L151.304 25.9055ZM154.554 20.6502C157.291 17.7217 160.941 16.1543 165.911 16.1543V8.36824C159.088 8.36824 153.271 10.6211 148.866 15.3333L154.554 20.6502ZM165.911 16.1543C167.606 16.1543 168.853 16.4373 169.767 16.8576L173.018 9.78267C170.86 8.79116 168.453 8.36824 165.911 8.36824V16.1543ZM171.778 17.1941L182.429 16.1352L181.659 8.38734L171.008 9.44624L171.778 17.1941ZM178.219 11.5355L173.61 35.8279L181.26 37.2793L185.869 12.987L178.219 11.5355ZM173.658 35.6094C173.419 36.5669 173.355 37.6451 173.355 38.6714H181.141C181.141 38.2981 181.154 38.0112 181.173 37.7989C181.192 37.5787 181.213 37.4909 181.212 37.4978L173.658 35.6094ZM173.355 38.6714C173.355 40.408 173.895 42.1523 175.205 43.5628L180.91 38.2648C180.997 38.3582 181.069 38.4774 181.112 38.5949C181.151 38.7035 181.141 38.7437 181.141 38.6714H173.355ZM175.305 43.6665C176.532 44.8938 178.078 45.6131 179.788 45.7841L180.563 38.0367C180.557 38.0361 180.606 38.0414 180.681 38.0765C180.756 38.1119 180.8 38.1511 180.81 38.161L175.305 43.6665ZM176.441 40.8119C176.372 41.0447 176.204 41.413 175.397 41.8492L179.099 48.6986C181.365 47.4738 183.148 45.5997 183.91 43.0089L176.441 40.8119ZM175.357 41.8708C174.438 42.3815 173.49 42.6267 172.452 42.6267V50.4127C174.819 50.4127 177.068 49.8273 179.139 48.677L175.357 41.8708ZM172.452 42.6267C171.246 42.6267 170.521 42.3918 170.085 42.143L166.222 48.9032C168.112 49.9831 170.252 50.4127 172.452 50.4127V42.6267ZM170.044 42.12C169.831 42.0017 169.75 41.9146 169.729 41.8899C169.714 41.8723 169.706 41.8611 169.695 41.8244L162.253 44.1141C162.921 46.2867 164.392 47.8866 166.263 48.9262L170.044 42.12ZM162.695 40.8707C162.519 41.146 162.125 41.5662 161.202 42.0006L164.517 49.0455C166.418 48.1512 168.1 46.8688 169.253 45.0678L162.695 40.8707ZM161.202 42.0006C160.411 42.3726 159.339 42.6267 157.876 42.6267V50.4127C160.234 50.4127 162.484 50.0024 164.517 49.0455L161.202 42.0006ZM157.876 42.6267C156.353 42.6267 155.063 42.4236 153.97 42.0691L151.568 49.4753C153.547 50.1174 155.662 50.4127 157.876 50.4127V42.6267ZM153.97 42.0691C153.004 41.7558 152.329 41.3061 151.83 40.7647L146.109 46.0458C147.602 47.6638 149.461 48.792 151.568 49.4753L153.97 42.0691ZM158.79 16.0863C158.111 17.1971 157.563 18.5334 157.099 19.9733L164.509 22.3636C164.875 21.2289 165.199 20.5304 165.434 20.1463L158.79 16.0863ZM157.111 19.9374C156.613 21.4289 156.013 23.9658 155.31 27.3544L162.934 28.935C163.643 25.5135 164.164 23.3995 164.497 22.3995L157.111 19.9374ZM155.303 27.3903C154.608 30.9072 154.232 34.0596 154.232 36.8027H162.018C162.018 34.7289 162.307 32.1093 162.941 28.8991L155.303 27.3903ZM154.232 36.8027C154.232 38.0894 154.281 39.25 154.4 40.2408C154.507 41.1268 154.71 42.2845 155.245 43.2958L162.127 39.6529C162.232 39.8526 162.245 39.9515 162.22 39.8493C162.199 39.7644 162.165 39.5939 162.131 39.3132C162.063 38.7468 162.018 37.9246 162.018 36.8027H154.232ZM155.245 43.2958C156.13 44.9671 157.818 46.4263 160.243 46.4263V38.6402C160.644 38.6402 161.12 38.7604 161.545 39.0493C161.934 39.3139 162.095 39.5939 162.127 39.6529L155.245 43.2958ZM160.243 46.4263C163.01 46.4263 165.217 45.0439 166.759 43.0332L160.58 38.296C160.366 38.5749 160.238 38.6453 160.232 38.6484C160.228 38.6504 160.237 38.6455 160.253 38.6416C160.269 38.6377 160.268 38.6402 160.243 38.6402V46.4263ZM166.747 43.0478C168.263 41.0897 169.125 38.6496 169.565 36.0101L161.885 34.7301C161.577 36.5754 161.068 37.6649 160.591 38.2814L166.747 43.0478ZM169.555 36.0631L172.857 17.8127L165.195 16.4268L161.894 34.6772L169.555 36.0631ZM171.559 14.1639C170.062 12.8806 168.229 12.1055 166.161 12.1055V19.8915C166.2 19.8915 166.217 19.8964 166.237 19.9042C166.262 19.9141 166.348 19.9522 166.492 20.0755L171.559 14.1639ZM166.161 12.1055C164.773 12.1055 163.27 12.3307 161.899 13.0618L165.563 19.9318C165.494 19.9687 165.489 19.9571 165.588 19.9367C165.689 19.9159 165.873 19.8915 166.161 19.8915V12.1055ZM161.8 13.1168C160.546 13.8333 159.597 14.8704 158.873 15.9569L165.351 20.2758C165.623 19.8673 165.754 19.8248 165.663 19.8769L161.8 13.1168ZM208.767 12.7596L207.698 16.5028L211.568 17.6085L212.544 13.7037L208.767 12.7596ZM208.954 11.8252L212.784 12.5216L212.791 12.4834L212.797 12.4451L208.954 11.8252ZM209.265 9.8943L205.448 9.13082L205.434 9.20237L205.422 9.27441L209.265 9.8943ZM209.888 6.59303L206.073 5.82027L206.065 5.85838L206.058 5.89663L209.888 6.59303ZM210.885 1.67228L210.496 -2.20121L207.639 -1.91414L207.069 0.89951L210.885 1.67228ZM223.28 0.426516L227.104 1.15828L228.085 -3.969L222.891 -3.44697L223.28 0.426516ZM216.366 36.5536L212.543 35.8218L212.534 35.8676L212.526 35.9136L216.366 36.5536ZM216.989 40.976L213.721 43.0909L213.75 43.1367L213.781 43.1816L216.989 40.976ZM218.796 41.9727L222.378 43.497L224.683 38.0797H218.796V41.9727ZM213.75 46.146L214.82 49.8892L214.892 49.8686L214.963 49.8452L213.75 46.146ZM207.085 45.5231L209.07 42.174L209.023 42.1463L208.976 42.12L207.085 45.5231ZM204.905 42.9693L208.626 41.8244L206.097 33.6047L201.59 40.929L204.905 42.9693ZM201.915 45.5231L200.263 41.9981L200.218 42.019L200.174 42.0411L201.915 45.5231ZM191.7 45.7722L190.528 49.4845L190.542 49.4889L190.555 49.4931L191.7 45.7722ZM187.838 43.4053L184.891 45.9483L184.933 45.9978L184.978 46.0458L187.838 43.4053ZM190.579 17.9918L193.378 20.698L193.385 20.6904L193.392 20.6827L190.579 17.9918ZM200.794 18.4901L204.276 20.2311L200.794 18.4901ZM198.24 27.1481L194.432 26.3403L194.428 26.3587L194.425 26.3772L198.24 27.1481ZM202.601 40.6646L199.439 38.3925L199.416 38.4256L199.393 38.4591L202.601 40.6646ZM204.594 35.3701L200.765 34.6645L200.76 34.6914L200.756 34.7184L204.594 35.3701ZM207.957 17.1197L211.786 17.8253L212.192 15.622L210.491 14.1639L207.957 17.1197ZM204.781 16.1543C205.996 16.1543 206.953 16.2901 207.698 16.5028L209.837 9.01634C208.255 8.56458 206.556 8.36824 204.781 8.36824V16.1543ZM212.544 13.7037C212.62 13.3974 212.703 12.9671 212.784 12.5216L205.124 11.1288C205.085 11.344 205.053 11.5121 205.028 11.6379C205 11.7748 204.989 11.8227 204.99 11.8154L212.544 13.7037ZM212.797 12.4451L213.109 10.5142L205.422 9.27441L205.111 11.2053L212.797 12.4451ZM213.083 10.6578C213.255 9.7954 213.468 8.66992 213.719 7.28943L206.058 5.89663C205.811 7.25682 205.608 8.33219 205.448 9.13082L213.083 10.6578ZM213.704 7.3658L214.7 2.44504L207.069 0.89951L206.073 5.82027L213.704 7.3658ZM211.274 5.54577L223.67 4.30001L222.891 -3.44697L210.496 -2.20121L211.274 5.54577ZM219.457 -0.305244L212.543 35.8218L220.19 37.2854L227.104 1.15828L219.457 -0.305244ZM212.526 35.9136C212.434 36.4652 212.411 37.0383 212.411 37.5502H220.197C220.197 37.4047 220.201 37.3009 220.205 37.2324C220.209 37.1604 220.213 37.153 220.206 37.1936L212.526 35.9136ZM212.411 37.5502V38.5468H220.197V37.5502H212.411ZM212.411 38.5468C212.411 40.1432 212.821 41.7005 213.721 43.0909L220.258 38.8612C220.244 38.8397 220.197 38.7776 220.197 38.5468H212.411ZM213.781 43.1816C214.897 44.8043 216.652 45.8657 218.796 45.8657V38.0797C219.021 38.0797 219.34 38.136 219.664 38.3149C219.977 38.4876 220.142 38.6897 220.197 38.7705L213.781 43.1816ZM215.213 40.4483C214.931 41.1125 214.299 41.8691 212.537 42.4467L214.963 49.8452C218.267 48.7618 220.999 46.7362 222.378 43.497L215.213 40.4483ZM212.681 42.4027C212.259 42.5233 211.582 42.6267 210.573 42.6267V50.4127C212.056 50.4127 213.497 50.2669 214.82 49.8892L212.681 42.4027ZM210.573 42.6267C210.125 42.6267 209.641 42.5126 209.07 42.174L205.101 48.8722C206.772 49.8624 208.614 50.4127 210.573 50.4127V42.6267ZM208.976 42.12C208.763 42.0017 208.681 41.9146 208.66 41.8899C208.645 41.8723 208.637 41.8611 208.626 41.8244L201.184 44.1141C201.853 46.2867 203.324 47.8866 205.195 48.9262L208.976 42.12ZM201.59 40.929C201.383 41.2651 201.016 41.6454 200.263 41.9981L203.568 49.048C205.473 48.155 207.099 46.8327 208.221 45.0096L201.59 40.929ZM200.174 42.0411C199.528 42.3641 198.524 42.6267 196.995 42.6267V50.4127C199.369 50.4127 201.645 50.0109 203.656 49.0051L200.174 42.0411ZM196.995 42.6267C195.424 42.6267 194.05 42.4221 192.845 42.0514L190.555 49.4931C192.59 50.119 194.745 50.4127 196.995 50.4127V42.6267ZM192.872 42.0599C191.858 41.7395 191.18 41.2858 190.699 40.7647L184.978 46.0458C186.49 47.6841 188.387 48.8083 190.528 49.4845L192.872 42.0599ZM190.786 40.8622C189.877 39.8084 188.991 37.5019 188.991 33.0032H181.205C181.205 38.1383 182.146 42.7666 184.891 45.9483L190.786 40.8622ZM188.991 33.0032C188.991 27.5846 190.553 23.619 193.378 20.698L187.78 15.2855C183.297 19.9222 181.205 25.9641 181.205 33.0032H188.991ZM193.392 20.6827C196.235 17.7109 199.912 16.1543 204.781 16.1543V8.36824C198.022 8.36824 192.232 10.6319 187.766 15.3008L193.392 20.6827ZM204.345 12.1055C202.829 12.1055 201.357 12.5302 200.068 13.4348C198.819 14.3118 197.936 15.5008 197.312 16.7491L204.276 20.2311C204.483 19.8183 204.607 19.7615 204.541 19.8081C204.507 19.8321 204.454 19.8595 204.395 19.8776C204.338 19.8949 204.315 19.8915 204.345 19.8915V12.1055ZM197.312 16.7491C196.24 18.8928 195.309 22.2079 194.432 26.3403L202.049 27.9559C202.916 23.8662 203.687 21.4093 204.276 20.2311L197.312 16.7491ZM194.425 26.3772C193.549 30.7087 193.102 34.8717 193.102 38.8583H200.888C200.888 35.4533 201.27 31.8096 202.056 27.919L194.425 26.3772ZM193.102 38.8583C193.102 40.3803 193.304 42.1634 194.203 43.6866C195.291 45.5302 197.14 46.5508 199.237 46.5508V38.7648C199.425 38.7648 199.779 38.8093 200.171 39.0307C200.566 39.2538 200.798 39.5425 200.908 39.7293C201.003 39.8911 200.988 39.9405 200.955 39.7691C200.922 39.6038 200.888 39.3116 200.888 38.8583H193.102ZM199.237 46.5508C202.131 46.5508 204.345 44.9986 205.809 42.8701L199.393 38.4591C199.182 38.7658 199.063 38.8261 199.09 38.8104C199.103 38.8024 199.134 38.7872 199.176 38.776C199.217 38.7648 199.241 38.7648 199.237 38.7648V46.5508ZM205.762 42.9367C207.165 40.9841 207.993 38.6057 208.432 36.0219L200.756 34.7184C200.447 36.5362 199.946 37.6875 199.439 38.3925L205.762 42.9367ZM208.422 36.0757L211.786 17.8253L204.129 16.4141L200.765 34.6645L208.422 36.0757ZM210.491 14.1639C208.705 12.6333 206.494 12.1055 204.345 12.1055V19.8915C204.804 19.8915 205.089 19.9481 205.246 19.9969C205.323 20.0207 205.368 20.0423 205.391 20.0547C205.413 20.0667 205.422 20.074 205.424 20.0755L210.491 14.1639Z" fill="white" mask="url(#path-1-outside-1_16_98)"/>
</g>
<defs>
<filter id="filter0_d_16_98" x="0.828614" y="0.426514" width="226.345" height="65.091" filterUnits="userSpaceOnUse" color-interpolation-filters="sRGB">
<feFlood flood-opacity="0" result="BackgroundImageFix"/>
<feColorMatrix in="SourceAlpha" type="matrix" values="0 0 0 0 0 0 0 0 0 0 0 0 0 0 0 0 0 0 127 0" result="hardAlpha"/>
<feOffset dy="3.893"/>
<feGaussianBlur stdDeviation="1.9465"/>
<feComposite in2="hardAlpha" operator="out"/>
<feColorMatrix type="matrix" values="0 0 0 0 0 0 0 0 0 0 0 0 0 0 0 0 0 0 0.25 0"/>
<feBlend mode="normal" in2="BackgroundImageFix" result="effect1_dropShadow_16_98"/>
<feBlend mode="normal" in="SourceGraphic" in2="effect1_dropShadow_16_98" result="shape"/>
</filter>
</defs>
</svg>
